<svg width="526" height="572" viewBox="0 0 526 572" fill="none" xmlns="http://www.w3.org/2000/svg">
<path d="M312 156C312 242.156 242.156 312 156 312C69.8436 312 0 242.156 0 156C0 69.8436 69.8436 0 156 0C242.156 0 312 69.8436 312 156Z" fill="#DD4A5C"/>
<path d="M526 426C526 506.634 460.634 572 380 572C299.366 572 234 506.634 234 426C234 345.366 299.366 280 380 280C460.634 280 526 345.366 526 426Z" fill="#DD4A5C"/>
<path d="M515 173C515 226.572 471.572 270 418 270C364.428 270 321 226.572 321 173C321 119.428 364.428 76 418 76C471.572 76 515 119.428 515 173Z" fill="#DD4A5C"/>
<path fill-rule="evenodd" clip-rule="evenodd" d="M334.8 222.868C351.921 251.433 347.937 275.001 304.942 300.771L488.535 328.346C455.007 291.083 458.122 267.384 482.879 245.109L334.8 222.868Z" fill="#DD4A5C"/>
<path fill-rule="evenodd" clip-rule="evenodd" d="M362.649 93.3431C336.564 111.468 313.258 108.931 284.108 66.9812L271.53 260.827C305.857 222.996 329.296 223.492 352.819 244.836L362.649 93.3431Z" fill="#DD4A5C"/>
<path fill-rule="evenodd" clip-rule="evenodd" d="M395.607 280.837C329.632 273.743 303.527 243.17 311.106 172.676L143.752 311.518C214.433 317.085 239.661 348.386 234.451 414.537L395.607 280.837Z" fill="#DD4A5C"/>
<path d="M309 186L276 219H290V263.5L329 302.5L402.5 229L359.5 186H309Z" fill="#DD4A5C"/>
</svg>
