<svg width="500" height="270" viewBox="0 0 500 270" fill="none" xmlns="http://www.w3.org/2000/svg">
<g clip-path="url(#clip0_3_18)">
<path d="M31.6703 225.4L30.1107 233.224C29.9931 233.823 29.8703 234.432 29.7368 235.035C28.4332 234.765 27.0817 234.84 25.8164 235.254C26.8203 236.689 27.7199 238.193 28.5083 239.757C27.5255 242.785 26.0834 245.584 23.6693 247.608C22.0568 248.93 20.131 249.814 18.0775 250.175C16.024 250.536 13.9121 250.362 11.9455 249.67L12.0149 249.36C9.41911 244.323 10.8292 237.973 14.0552 233.321C15.7006 231.025 17.6502 228.965 19.8503 227.194C22.0295 225.378 24.385 223.749 26.719 222.142C27.2433 221.781 27.8631 221.585 28.4993 221.579C29.1355 221.572 29.7591 221.755 30.2906 222.105C30.8221 222.455 31.2372 222.955 31.483 223.542C31.7287 224.129 31.7939 224.776 31.6703 225.4Z" fill="#E4E4E4"/>
<path d="M12.5009 268.497C11.8445 263.715 11.1694 258.872 11.6298 254.039C12.0389 249.747 13.348 245.555 16.0143 242.117C17.4295 240.296 19.1514 238.736 21.1028 237.506C21.6118 237.186 22.0797 237.992 21.5734 238.311C18.1971 240.445 15.5857 243.596 14.1156 247.309C12.4918 251.439 12.2312 255.941 12.5132 260.328C12.6825 262.981 13.0409 265.616 13.4025 268.249C13.4316 268.368 13.4141 268.494 13.3535 268.6C13.293 268.707 13.1939 268.786 13.0767 268.822C12.9575 268.855 12.8303 268.838 12.7229 268.777C12.6155 268.716 12.5365 268.616 12.5031 268.497L12.5009 268.497Z" fill="#F2F2F2"/>
<path d="M18.1344 28.6466C41.0143 28.2487 63.8968 28.1916 86.7816 28.4751C109.663 28.7603 132.537 29.3878 155.403 30.3574C168.234 30.9016 181.06 31.5535 193.881 32.3131C194.911 32.374 194.908 30.7715 193.881 30.7108C171.038 29.359 148.178 28.3476 125.301 27.6764C102.427 27.007 79.5472 26.6799 56.6604 26.6951C43.8177 26.7036 30.9757 26.82 18.1344 27.0443C17.1045 27.0622 17.1012 28.6646 18.1344 28.6466V28.6466Z" fill="#E6E6E6"/>
<path d="M177.586 18.5995L187.591 17.8549C188.613 17.7788 188.621 16.1759 187.591 16.2525L177.586 16.9972C176.564 17.0732 176.556 18.6762 177.586 18.5995Z" fill="#E6E6E6"/>
<path d="M177.586 28.2135L187.591 27.4689C188.613 27.3929 188.621 25.7899 187.591 25.8666L177.586 26.6112C176.564 26.6873 176.556 28.2902 177.586 28.2135Z" fill="#E6E6E6"/>
<path d="M176.833 23.823L191.058 25.1153C192.085 25.2086 192.078 23.6057 191.058 23.513L176.833 22.2207C175.807 22.1274 175.813 23.7303 176.833 23.823Z" fill="#E6E6E6"/>
<path d="M24.0553 16.4446C23.3596 16.4403 22.678 16.6409 22.0955 17.0213C21.5129 17.4017 21.0553 17.9452 20.7795 18.584C20.4711 19.2092 20.3758 19.9182 20.5084 20.6026C20.641 21.287 20.9941 21.9092 21.5138 22.374C22.0022 22.7896 22.5881 23.0745 23.2166 23.2022C23.8451 23.3299 24.4958 23.2961 25.1077 23.1041C25.7335 22.8855 26.2762 22.4784 26.661 21.9386C27.0458 21.3989 27.2539 20.7531 27.2566 20.0903C27.2846 19.3548 27.0853 18.6287 26.686 18.0105C26.2867 17.3923 25.7067 16.912 25.0248 16.6351C24.8199 16.5794 24.6014 16.607 24.4168 16.7119C24.2321 16.8167 24.0964 16.9902 24.0393 17.1947C23.9887 17.3993 24.0186 17.6156 24.1227 17.7989C24.2268 17.9823 24.3972 18.1187 24.5988 18.1802C24.7385 18.2341 24.4713 18.1116 24.6017 18.1826C24.6553 18.2118 24.7099 18.2382 24.7625 18.2694C24.8073 18.2959 24.8501 18.3249 24.8936 18.3533C25.0432 18.4509 24.8206 18.2816 24.9162 18.3694C24.9991 18.4455 25.0813 18.5197 25.1566 18.6037C25.1851 18.6354 25.2967 18.7237 25.21 18.662C25.1436 18.6148 25.1844 18.6259 25.2099 18.6638C25.2294 18.6926 25.2499 18.7206 25.269 18.7495C25.3315 18.844 25.3883 18.9422 25.4391 19.0435C25.4509 19.0669 25.4616 19.0909 25.4736 19.1142C25.496 19.1579 25.5286 19.1693 25.4758 19.1146C25.4254 19.0623 25.4575 19.0659 25.4755 19.1162C25.4874 19.1493 25.5003 19.1819 25.5119 19.2151C25.5494 19.3232 25.581 19.4333 25.6063 19.5449C25.6181 19.5964 25.6275 19.6483 25.6376 19.7002C25.6734 19.8842 25.6324 19.5858 25.641 19.7225C25.6483 19.8366 25.6567 19.9495 25.6547 20.064C25.6538 20.1165 25.6515 20.1688 25.6478 20.2211C25.646 20.2472 25.6431 20.2732 25.6414 20.2993C25.6331 20.425 25.6328 20.2534 25.6504 20.2416C25.6138 20.3483 25.5895 20.4589 25.578 20.5712C25.5636 20.621 25.5466 20.6697 25.5306 20.719C25.4749 20.8909 25.583 20.6253 25.5236 20.7427C25.4747 20.8437 25.42 20.9417 25.3599 21.0364C25.3338 21.076 25.2353 21.1655 25.3158 21.1032C25.4032 21.0356 25.27 21.152 25.2416 21.182C25.2051 21.2205 25.1673 21.2576 25.128 21.2935C25.1029 21.318 25.0763 21.3411 25.0486 21.3625C25.0435 21.36 25.1824 21.2697 25.1075 21.3175C25.0123 21.3782 24.9222 21.4432 24.8219 21.496C24.8102 21.5022 24.6819 21.5616 24.6824 21.5637C24.6769 21.5421 24.8473 21.5037 24.7304 21.5415C24.7058 21.5494 24.6817 21.559 24.6572 21.5673C24.5507 21.6031 24.442 21.6321 24.3318 21.654C24.3065 21.659 24.2798 21.6615 24.255 21.668C24.1722 21.6894 24.3341 21.6554 24.339 21.6582C24.2778 21.6556 24.2165 21.661 24.1567 21.6743C24.043 21.6809 23.929 21.6808 23.8154 21.6743C23.7891 21.6728 23.7628 21.6702 23.7365 21.6687C23.6755 21.6651 23.6307 21.6211 23.7119 21.6689C23.7746 21.7057 23.7694 21.6788 23.7138 21.6686C23.6879 21.6638 23.6618 21.6597 23.6358 21.6549C23.5233 21.6338 23.412 21.6065 23.3025 21.5732C23.2436 21.5553 23.1859 21.5344 23.1277 21.5141C23.1024 21.5067 23.0777 21.4972 23.054 21.4857C23.0537 21.4791 23.2039 21.5575 23.1246 21.5147C23.0245 21.4608 22.921 21.4156 22.8233 21.3566C22.7711 21.3252 22.721 21.291 22.6703 21.2573C22.648 21.2439 22.6268 21.2287 22.6069 21.2119C22.6086 21.2051 22.7311 21.3187 22.6668 21.2574C22.5855 21.1798 22.4985 21.1104 22.4214 21.0279C22.4038 21.009 22.3871 20.9892 22.3696 20.9703L22.3526 20.9509C22.3091 20.8978 22.3083 20.8981 22.3501 20.9516C22.3926 20.9642 22.3907 21.0108 22.3504 20.9502C22.336 20.9287 22.3208 20.9077 22.3064 20.8861C22.2414 20.7934 22.1859 20.6943 22.1408 20.5904C22.1447 20.5874 22.2102 20.7832 22.1602 20.6354C22.1507 20.6075 22.14 20.58 22.1308 20.5521C22.1124 20.4966 22.0962 20.4404 22.0822 20.3837C22.0683 20.3275 22.0612 20.2695 22.0472 20.2135C22.0237 20.1192 22.061 20.288 22.0567 20.2838C22.0434 20.2706 22.0491 20.1887 22.0481 20.1691C22.0417 20.0434 22.056 19.9214 22.0582 19.7965C22.06 19.6997 22.0502 19.8719 22.0482 19.8669C22.0487 19.8379 22.0538 19.8091 22.0634 19.7818C22.0779 19.7159 22.0914 19.65 22.1092 19.5848C22.1295 19.5102 22.1529 19.4365 22.1794 19.3637C22.1893 19.3365 22.2013 19.3096 22.2105 19.2822C22.2442 19.1816 22.1438 19.4037 22.1992 19.313C22.2754 19.1881 22.3322 19.0531 22.4131 18.9298C22.4323 18.9006 22.5489 18.7378 22.487 18.82C22.4254 18.9019 22.5503 18.7467 22.574 18.7204C22.6723 18.6109 22.7878 18.5211 22.8896 18.4163C22.9498 18.3543 22.8475 18.4469 22.8415 18.4512C22.873 18.4287 22.9039 18.4053 22.9358 18.3833C22.9914 18.345 23.0484 18.3087 23.1067 18.2746C23.1725 18.236 23.2468 18.2073 23.3105 18.1666C23.3857 18.1184 23.2529 18.1877 23.2505 18.1892C23.2849 18.1721 23.3209 18.1584 23.3579 18.1483C23.4199 18.1263 23.6897 18.0098 23.7463 18.0462C23.7438 18.0446 23.5414 18.0625 23.705 18.052C23.7436 18.0495 23.7821 18.0458 23.8208 18.0442C23.8991 18.0409 23.9772 18.0429 24.0554 18.047C24.2674 18.0456 24.4704 17.9607 24.6203 17.8108C24.7703 17.6608 24.8551 17.4578 24.8565 17.2458C24.852 17.0347 24.7661 16.8336 24.6169 16.6843C24.4676 16.535 24.2664 16.4491 24.0554 16.4446L24.0553 16.4446Z" fill="#E6E6E6"/>
<path d="M35.2717 16.4446C34.576 16.4403 33.8944 16.6409 33.3118 17.0213C32.7293 17.4017 32.2717 17.9452 31.9959 18.584C31.6874 19.2092 31.5922 19.9182 31.7248 20.6026C31.8574 21.287 32.2105 21.9092 32.7301 22.374C33.2186 22.7896 33.8045 23.0745 34.433 23.2022C35.0615 23.3299 35.7121 23.2961 36.324 23.1041C36.9499 22.8855 37.4925 22.4784 37.8774 21.9386C38.2622 21.3989 38.4703 20.7531 38.473 20.0903C38.5009 19.3548 38.3017 18.6287 37.9024 18.0105C37.5031 17.3923 36.923 16.912 36.2412 16.6351C36.0363 16.5794 35.8177 16.607 35.6331 16.7119C35.4485 16.8167 35.3128 16.9902 35.2556 17.1947C35.2051 17.3993 35.2349 17.6156 35.339 17.7989C35.4431 17.9823 35.6135 18.1187 35.8152 18.1802C35.9548 18.2341 35.6876 18.1116 35.818 18.1826C35.8716 18.2118 35.9262 18.2382 35.9789 18.2694C36.0236 18.2959 36.0665 18.3249 36.11 18.3533C36.2595 18.4509 36.037 18.2816 36.1326 18.3694C36.2155 18.4455 36.2976 18.5197 36.373 18.6037C36.4015 18.6354 36.5131 18.7237 36.4263 18.662C36.36 18.6148 36.4007 18.6259 36.4263 18.6638C36.4457 18.6926 36.4662 18.7206 36.4854 18.7495C36.5479 18.844 36.6047 18.9422 36.6555 19.0435C36.6672 19.0669 36.678 19.0909 36.69 19.1142C36.7124 19.1579 36.7449 19.1693 36.6922 19.1146C36.6418 19.0623 36.6739 19.0659 36.6919 19.1162C36.7038 19.1493 36.7167 19.1819 36.7282 19.2151C36.7658 19.3232 36.7973 19.4333 36.8227 19.5449C36.8344 19.5964 36.8439 19.6483 36.854 19.7002C36.8897 19.8842 36.8488 19.5858 36.8574 19.7225C36.8646 19.8366 36.873 19.9495 36.8711 20.064C36.8701 20.1165 36.8679 20.1688 36.8642 20.2211C36.8624 20.2472 36.8595 20.2732 36.8577 20.2993C36.8494 20.425 36.8492 20.2534 36.8668 20.2416C36.8301 20.3483 36.8059 20.4589 36.7944 20.5712C36.78 20.621 36.763 20.6697 36.747 20.719C36.6913 20.8909 36.7993 20.6253 36.7399 20.7427C36.691 20.8437 36.6364 20.9417 36.5762 21.0364C36.5501 21.076 36.4517 21.1655 36.5322 21.1032C36.6195 21.0356 36.4864 21.152 36.458 21.182C36.4215 21.2205 36.3836 21.2576 36.3444 21.2935C36.3192 21.318 36.2927 21.3411 36.2649 21.3625C36.2598 21.36 36.3988 21.2697 36.3239 21.3175C36.2287 21.3782 36.1385 21.4432 36.0382 21.496C36.0265 21.5022 35.8983 21.5616 35.8988 21.5637C35.8933 21.5421 36.0637 21.5037 35.9467 21.5415C35.9222 21.5494 35.898 21.559 35.8736 21.5673C35.7671 21.6031 35.6584 21.6321 35.5481 21.654C35.5229 21.659 35.4962 21.6615 35.4713 21.668C35.3885 21.6894 35.5505 21.6554 35.5553 21.6582C35.4941 21.6556 35.4328 21.661 35.373 21.6743C35.2594 21.6809 35.1454 21.6808 35.0317 21.6743C35.0054 21.6728 34.9792 21.6702 34.9529 21.6687C34.8918 21.6651 34.847 21.6211 34.9283 21.6689C34.991 21.7057 34.9857 21.6788 34.9302 21.6686C34.9042 21.6638 34.8782 21.6597 34.8522 21.6549C34.7397 21.6338 34.6284 21.6065 34.5189 21.5732C34.46 21.5553 34.4022 21.5344 34.3441 21.5141C34.3188 21.5067 34.2941 21.4972 34.2704 21.4857C34.27 21.4791 34.4202 21.5575 34.3409 21.5147C34.2409 21.4608 34.1374 21.4156 34.0396 21.3566C33.9875 21.3252 33.9374 21.291 33.8867 21.2573C33.8644 21.2439 33.8432 21.2287 33.8233 21.2119C33.825 21.2051 33.9475 21.3187 33.8832 21.2574C33.8018 21.1798 33.7148 21.1104 33.6378 21.0279C33.6202 21.009 33.6035 20.9892 33.5859 20.9703L33.5689 20.9509C33.5255 20.8978 33.5247 20.8981 33.5665 20.9516C33.609 20.9642 33.607 21.0108 33.5668 20.9502C33.5524 20.9287 33.5371 20.9077 33.5228 20.8861C33.4577 20.7934 33.4023 20.6943 33.3572 20.5904C33.3611 20.5874 33.4266 20.7832 33.3765 20.6354C33.3671 20.6075 33.3564 20.58 33.3471 20.5521C33.3287 20.4966 33.3125 20.4404 33.2985 20.3837C33.2847 20.3275 33.2776 20.2695 33.2636 20.2135C33.2401 20.1192 33.2774 20.288 33.2731 20.2838C33.2598 20.2706 33.2654 20.1887 33.2644 20.1691C33.258 20.0434 33.2724 19.9214 33.2746 19.7965C33.2763 19.6997 33.2666 19.8719 33.2646 19.8669C33.2651 19.8379 33.2702 19.8091 33.2798 19.7818C33.2943 19.7159 33.3078 19.65 33.3255 19.5848C33.3459 19.5102 33.3693 19.4365 33.3957 19.3637C33.4056 19.3365 33.4177 19.3096 33.4269 19.2822C33.4606 19.1816 33.3601 19.4037 33.4155 19.313C33.4918 19.1881 33.5485 19.0531 33.6295 18.9298C33.6486 18.9006 33.7652 18.7378 33.7034 18.82C33.6417 18.9019 33.7667 18.7467 33.7903 18.7204C33.8886 18.6109 34.0042 18.5211 34.1059 18.4163C34.1662 18.3543 34.0639 18.4469 34.0579 18.4512C34.0894 18.4287 34.1202 18.4053 34.1521 18.3833C34.2078 18.345 34.2647 18.3087 34.3231 18.2746C34.3888 18.236 34.4631 18.2073 34.5268 18.1666C34.6021 18.1184 34.4693 18.1877 34.4669 18.1892C34.5013 18.1721 34.5372 18.1584 34.5742 18.1483C34.6363 18.1263 34.9061 18.0098 34.9627 18.0462C34.9601 18.0446 34.7578 18.0625 34.9214 18.052C34.96 18.0495 34.9985 18.0458 35.0372 18.0442C35.1155 18.0409 35.1935 18.0429 35.2717 18.047C35.4838 18.0456 35.6868 17.9607 35.8367 17.8108C35.9867 17.6608 36.0715 17.4578 36.0729 17.2458C36.0684 17.0347 35.9825 16.8336 35.8332 16.6843C35.6839 16.535 35.4828 16.4491 35.2717 16.4446L35.2717 16.4446Z" fill="#E6E6E6"/>
<path d="M46.4881 16.4446C45.7923 16.4403 45.1107 16.6409 44.5282 17.0213C43.9457 17.4017 43.488 17.9452 43.2123 18.584C42.9038 19.2092 42.8086 19.9182 42.9412 20.6026C43.0738 21.287 43.4269 21.9092 43.9465 22.374C44.435 22.7896 45.0209 23.0745 45.6494 23.2022C46.2779 23.3299 46.9285 23.2961 47.5404 23.1041C48.1662 22.8855 48.7089 22.4784 49.0937 21.9386C49.4786 21.3989 49.6867 20.7531 49.6894 20.0903C49.7173 19.3548 49.5181 18.6287 49.1188 18.0105C48.7194 17.3923 48.1394 16.912 47.4575 16.6351C47.2527 16.5794 47.0341 16.607 46.8495 16.7119C46.6649 16.8167 46.5292 16.9902 46.472 17.1947C46.4215 17.3993 46.4513 17.6156 46.5554 17.7989C46.6595 17.9823 46.8299 18.1187 47.0316 18.1802C47.1712 18.2341 46.904 18.1116 47.0344 18.1826C47.088 18.2118 47.1426 18.2382 47.1952 18.2694C47.24 18.2959 47.2828 18.3249 47.3264 18.3533C47.4759 18.4509 47.2534 18.2816 47.349 18.3694C47.4319 18.4455 47.514 18.5197 47.5893 18.6037C47.6178 18.6354 47.7295 18.7237 47.6427 18.662C47.5763 18.6148 47.6171 18.6259 47.6427 18.6638C47.6621 18.6926 47.6826 18.7206 47.7018 18.7495C47.7643 18.844 47.821 18.9422 47.8718 19.0435C47.8836 19.0669 47.8944 19.0909 47.9063 19.1142C47.9288 19.1579 47.9613 19.1693 47.9086 19.1146C47.8582 19.0623 47.8902 19.0659 47.9083 19.1162C47.9201 19.1493 47.9331 19.1819 47.9446 19.2151C47.9822 19.3232 48.0137 19.4333 48.0391 19.5449C48.0508 19.5964 48.0602 19.6483 48.0703 19.7002C48.1061 19.8842 48.0651 19.5858 48.0738 19.7225C48.081 19.8366 48.0894 19.9495 48.0874 20.064C48.0865 20.1165 48.0842 20.1688 48.0806 20.2211C48.0787 20.2472 48.0758 20.2732 48.0741 20.2993C48.0658 20.425 48.0655 20.2534 48.0831 20.2416C48.0465 20.3483 48.0222 20.4589 48.0107 20.5712C47.9964 20.621 47.9793 20.6697 47.9634 20.719C47.9076 20.8909 48.0157 20.6253 47.9563 20.7427C47.9074 20.8437 47.8528 20.9417 47.7926 21.0364C47.7665 21.076 47.6681 21.1655 47.7486 21.1032C47.8359 21.0356 47.7028 21.152 47.6744 21.182C47.6379 21.2205 47.6 21.2576 47.5608 21.2935C47.5356 21.318 47.5091 21.3411 47.4813 21.3625C47.4762 21.36 47.6151 21.2697 47.5403 21.3175C47.4451 21.3782 47.3549 21.4432 47.2546 21.496C47.2429 21.5022 47.1147 21.5616 47.1152 21.5637C47.1097 21.5421 47.2801 21.5037 47.1631 21.5415C47.1385 21.5494 47.1144 21.559 47.0899 21.5673C46.9834 21.6031 46.8747 21.6321 46.7645 21.654C46.7393 21.659 46.7126 21.6615 46.6877 21.668C46.6049 21.6894 46.7669 21.6554 46.7717 21.6582C46.7105 21.6556 46.6492 21.661 46.5894 21.6743C46.4757 21.6809 46.3618 21.6808 46.2481 21.6743C46.2218 21.6728 46.1956 21.6702 46.1693 21.6687C46.1082 21.6651 46.0634 21.6211 46.1446 21.6689C46.2073 21.7057 46.2021 21.6788 46.1466 21.6686C46.1206 21.6638 46.0945 21.6597 46.0686 21.6549C45.956 21.6338 45.8448 21.6065 45.7353 21.5732C45.6763 21.5553 45.6186 21.5344 45.5605 21.5141C45.5351 21.5067 45.5105 21.4972 45.4868 21.4857C45.4864 21.4791 45.6366 21.5575 45.5573 21.5147C45.4572 21.4608 45.3537 21.4156 45.256 21.3566C45.2039 21.3252 45.1538 21.291 45.1031 21.2573C45.0808 21.2439 45.0596 21.2287 45.0397 21.2119C45.0414 21.2051 45.1639 21.3187 45.0996 21.2574C45.0182 21.1798 44.9312 21.1104 44.8542 21.0279C44.8365 21.009 44.8199 20.9892 44.8023 20.9703L44.7853 20.9509C44.7419 20.8978 44.7411 20.8981 44.7829 20.9516C44.8253 20.9642 44.8234 21.0108 44.7831 20.9502C44.7688 20.9287 44.7535 20.9077 44.7392 20.8861C44.6741 20.7934 44.6186 20.6943 44.5736 20.5904C44.5775 20.5874 44.643 20.7832 44.5929 20.6354C44.5834 20.6075 44.5728 20.58 44.5635 20.5521C44.5451 20.4966 44.5289 20.4404 44.5149 20.3837C44.5011 20.3275 44.494 20.2695 44.48 20.2135C44.4564 20.1192 44.4937 20.288 44.4895 20.2838C44.4761 20.2706 44.4818 20.1887 44.4808 20.1691C44.4744 20.0434 44.4887 19.9214 44.491 19.7965C44.4927 19.6997 44.483 19.8719 44.4809 19.8669C44.4814 19.8379 44.4866 19.8091 44.4961 19.7818C44.5106 19.7159 44.5241 19.65 44.5419 19.5848C44.5622 19.5102 44.5856 19.4365 44.6121 19.3637C44.622 19.3365 44.6341 19.3096 44.6433 19.2822C44.677 19.1816 44.5765 19.4037 44.6319 19.313C44.7081 19.1881 44.7649 19.0531 44.8458 18.9298C44.865 18.9006 44.9816 18.7378 44.9197 18.82C44.8581 18.9019 44.9831 18.7467 45.0067 18.7204C45.105 18.6109 45.2206 18.5211 45.3223 18.4163C45.3825 18.3543 45.2803 18.4469 45.2742 18.4512C45.3057 18.4287 45.3366 18.4053 45.3685 18.3833C45.4241 18.345 45.4811 18.3087 45.5395 18.2746C45.6052 18.236 45.6795 18.2073 45.7432 18.1666C45.8185 18.1184 45.6857 18.1877 45.6833 18.1892C45.7177 18.1721 45.7536 18.1584 45.7906 18.1483C45.8526 18.1263 46.1225 18.0098 46.1791 18.0462C46.1765 18.0446 45.9742 18.0625 46.1377 18.052C46.1764 18.0495 46.2149 18.0458 46.2536 18.0442C46.3319 18.0409 46.4099 18.0429 46.4881 18.047C46.7002 18.0456 46.9031 17.9607 47.0531 17.8108C47.203 17.6608 47.2879 17.4578 47.2893 17.2458C47.2847 17.0347 47.1989 16.8336 47.0496 16.6843C46.9003 16.535 46.6992 16.4491 46.4881 16.4446L46.4881 16.4446Z" fill="#E6E6E6"/>
<path d="M208.524 193.883H12.0207C9.53592 193.88 7.15367 192.892 5.39662 191.135C3.63958 189.378 2.65123 186.996 2.64844 184.511V9.37228C2.65122 6.88745 3.63955 4.50519 5.39659 2.74815C7.15363 0.991113 9.53589 0.00278638 12.0207 0H208.524C211.009 0.00278638 213.391 0.991113 215.148 2.74815C216.905 4.50519 217.893 6.88745 217.896 9.37228V184.511C217.893 186.996 216.905 189.378 215.148 191.135C213.391 192.892 211.009 193.88 208.524 193.883ZM12.0207 1.06823C9.81912 1.07073 7.7084 1.94642 6.15163 3.50319C4.59486 5.05996 3.71917 7.17067 3.71666 9.37228V184.511C3.71923 186.713 4.59495 188.823 6.15171 190.38C7.70848 191.937 9.81916 192.812 12.0207 192.815H208.524C210.725 192.812 212.836 191.937 214.393 190.38C215.949 188.823 216.825 186.713 216.828 184.511V9.37228C216.825 7.17067 215.95 5.05996 214.393 3.50319C212.836 1.94642 210.725 1.07073 208.524 1.06823H12.0207Z" fill="#E6E6E6"/>
<path d="M11.6952 119.164L80.7983 118.954L149.549 118.744L188.331 118.627C188.539 118.619 188.736 118.532 188.88 118.382C189.024 118.233 189.105 118.033 189.105 117.825C189.105 117.618 189.024 117.418 188.88 117.268C188.736 117.119 188.539 117.031 188.331 117.024L119.228 117.234L50.4775 117.443L11.6952 117.561C11.4875 117.569 11.2907 117.656 11.1463 117.806C11.002 117.955 10.9213 118.155 10.9213 118.363C10.9213 118.57 11.002 118.77 11.1463 118.92C11.2907 119.069 11.4875 119.157 11.6952 119.164Z" fill="#E6E6E6"/>
<path d="M46.5566 117.865L46.9839 92.6349C47.0013 91.6034 45.399 91.6032 45.3815 92.6349L44.9542 117.865C44.9368 118.896 46.5391 118.896 46.5566 117.865Z" fill="#E6E6E6"/>
<path d="M79.5836 118.138L80.6249 86.4251L80.9224 77.3643C80.9562 76.3329 79.3539 76.3342 79.32 77.3643L78.2787 109.077L77.9812 118.138C77.9474 119.169 79.5498 119.168 79.5836 118.138Z" fill="#E6E6E6"/>
<path d="M112.522 62.3317C111.893 73.5641 110.731 106.695 110.103 117.927C110.046 118.958 111.648 118.954 111.705 117.927C112.334 106.695 113.496 73.5641 114.124 62.3317C114.181 61.3014 112.579 61.3047 112.522 62.3317Z" fill="#E6E6E6"/>
<path d="M145.301 106.657L145.104 117.453C145.086 118.484 146.688 118.484 146.707 117.453C146.939 104.702 147.534 105.117 147.599 101.519C147.618 100.487 146.016 100.487 145.997 101.519C145.997 101.519 145.533 93.9056 145.301 106.657Z" fill="#E6E6E6"/>
<path d="M177.407 78.2949L177.589 108.584L177.641 117.257C177.648 117.464 177.735 117.661 177.885 117.806C178.034 117.95 178.234 118.031 178.442 118.031C178.65 118.031 178.849 117.95 178.999 117.806C179.148 117.661 179.236 117.464 179.243 117.257L179.062 86.9679L179.01 78.2949C179.003 78.0872 178.915 77.8904 178.766 77.7461C178.616 77.6017 178.416 77.521 178.209 77.521C178.001 77.521 177.801 77.6017 177.652 77.7461C177.502 77.8904 177.415 78.0872 177.407 78.2949Z" fill="#E6E6E6"/>
<path d="M11.824 118.262C10.4977 114.618 13.4875 111.112 16.5596 109.537C20.2402 107.65 24.4742 107.222 28.1938 105.403C33.7391 102.69 37.7781 97.8228 41.3721 92.9505C45.0713 87.9356 48.456 82.5533 53.1564 78.3865C55.6333 76.1419 58.5586 74.4489 61.7389 73.4197C65.7459 72.1692 69.9956 72.0834 74.1361 72.5874C82.6919 73.6287 90.6231 77.1625 98.8784 79.4085C106.661 81.526 115.237 82.7168 122.876 79.4239C126.758 77.7509 129.932 74.945 133.341 72.5169C136.64 70.1424 140.329 68.3629 144.241 67.2588C151.91 65.1263 160.285 65.6957 167.424 69.3007C173.987 72.5718 179.184 78.0563 182.096 84.7859C185.481 92.8716 185.04 101.907 183.935 110.418C183.649 112.618 183.309 114.81 182.965 117.002C182.807 118.011 184.351 118.445 184.51 117.428C185.887 108.652 187.26 99.598 185.546 90.7669C184.065 83.0557 179.825 76.1485 173.619 71.3377C167.387 66.5138 159.64 64.0689 151.768 64.4416C147.643 64.633 143.582 65.5362 139.764 67.1113C135.801 68.7504 132.446 71.1799 129.037 73.7363C125.533 76.3646 121.92 78.5387 117.569 79.3959C113.349 80.2274 108.959 79.9157 104.757 79.1307C96.0869 77.5108 88.0056 73.7975 79.4093 71.8948C71.4448 70.1321 62.8504 69.9559 55.7185 74.4553C50.2324 77.9164 46.3558 83.2895 42.6355 88.4779C38.9478 93.6208 35.2134 99.1203 29.821 102.633C26.5315 104.777 22.8338 105.567 19.154 106.772C15.4648 107.981 11.923 110.019 10.4188 113.799C9.77043 115.356 9.72062 117.097 10.2789 118.688C10.6287 119.65 12.1778 119.235 11.824 118.262V118.262Z" fill="#E6E6E6"/>
<path d="M46.0251 89.1461L46.0229 89.1472L46.0272 89.1461H46.0251Z" fill="#E6E6E6"/>
<path d="M48.8032 87.6722C48.4329 87.0164 47.8421 86.5131 47.1358 86.2517C46.4294 85.9903 45.6533 85.9877 44.9453 86.2444C44.5933 86.3728 44.2707 86.5706 43.9964 86.8259C43.7222 87.0812 43.502 87.389 43.3488 87.7309C43.3181 87.8035 43.3001 87.88 43.2751 87.9544C43.2404 88.0106 43.1987 88.0612 43.1676 88.12C42.8355 88.7817 42.7445 89.5386 42.9104 90.2602C43.0763 90.9818 43.4887 91.6229 44.0764 92.0732C44.6641 92.5235 45.3905 92.7547 46.1304 92.7271C46.8703 92.6994 47.5774 92.4146 48.1299 91.9217C48.7106 91.3968 49.0941 90.6889 49.2166 89.9158C49.3391 89.1427 49.1932 88.3509 48.8032 87.6722ZM46.7964 89.0329C46.803 89.0734 46.8006 89.1106 46.7964 89.0329V89.0329ZM46.5925 88.5691C46.5846 88.5601 46.5856 88.5611 46.5925 88.5691V88.5691ZM45.6934 88.9306C45.6813 88.9121 45.6801 88.909 45.6934 88.9306V88.9306ZM45.9065 89.1113C45.9572 89.1286 45.9371 89.125 45.9065 89.1113V89.1113ZM46.0016 89.1567L46.0227 89.147C46.0176 89.1475 46.0124 89.1465 46.0078 89.1441L46.0084 89.1439L46.0249 89.146L46.028 89.1446L46.0185 89.1424C46.0268 89.1421 46.0277 89.1432 46.0283 89.1445C46.1236 89.1009 46.059 89.1219 46.0038 89.139L46.0001 89.1381C45.9656 89.1206 45.9285 89.1087 45.8902 89.1029C45.8867 89.1009 45.8825 89.0995 45.8796 89.0973C45.8489 89.0755 45.6938 88.9544 45.8377 89.0814C45.8064 89.0537 45.7754 89.0266 45.746 88.9967C45.7286 88.9789 45.7129 88.9596 45.699 88.939C45.6801 88.9066 45.6618 88.874 45.6441 88.841L45.6414 88.8232C45.6391 88.8085 45.6373 88.8024 45.6353 88.7935C45.6363 88.7843 45.6377 88.7745 45.6392 88.7649C45.6499 88.7361 45.6568 88.706 45.6595 88.6754L45.6657 88.6676C45.6887 88.6354 45.7089 88.598 45.7308 88.5646C45.6147 88.741 45.7762 88.5451 45.7883 88.5203C45.7904 88.5161 45.7868 88.5184 45.7877 88.5155C45.7924 88.5129 45.7909 88.5147 45.7966 88.5113C45.8326 88.4901 45.8667 88.4665 45.9032 88.4463C45.9467 88.4221 46.1182 88.3735 45.9404 88.4243C45.9808 88.4128 46.0195 88.3982 46.0604 88.3875C46.0678 88.3856 46.1276 88.3772 46.1599 88.3714C46.1882 88.3707 46.2156 88.3699 46.2185 88.3699C46.2318 88.37 46.2451 88.3717 46.2584 88.3723C46.2289 88.3762 46.3597 88.4045 46.3985 88.4104C46.4041 88.4148 46.407 88.4177 46.4146 88.4232C46.4474 88.4472 46.4874 88.4686 46.522 88.491C46.3671 88.3908 46.5241 88.4989 46.5537 88.5285C46.5714 88.5462 46.5877 88.5651 46.6043 88.5837C46.6196 88.6014 46.6334 88.6204 46.6456 88.6403C46.671 88.6869 46.698 88.734 46.7247 88.7798L46.7321 88.7915C46.732 88.793 46.7319 88.7946 46.7319 88.7961C46.7458 88.8704 46.7663 88.9432 46.7932 89.0139C46.7946 89.0198 46.7956 89.0259 46.7963 89.032C46.7987 89.0727 46.8021 89.1132 46.8022 89.1541L46.8019 89.1624C46.6785 89.0981 46.5416 89.064 46.4024 89.063C46.2633 89.062 46.1259 89.0941 46.0016 89.1567H46.0016Z" fill="#E6E6E6"/>
<path d="M46.03 89.1451C46.0324 89.1459 46.0301 89.1457 46.0296 89.1459L46.03 89.1451Z" fill="#E6E6E6"/>
<path d="M46.0294 89.145L46.0305 89.1453L46.0294 89.145Z" fill="#E6E6E6"/>
<path d="M46.0296 89.1459L46.0272 89.1463C46.0302 89.1466 46.0291 89.1461 46.0296 89.1459Z" fill="#E6E6E6"/>
<path d="M46.0283 89.1445L46.0303 89.1455L46.0283 89.1445Z" fill="#E6E6E6"/>
<path d="M80.2083 74.191L80.2062 74.192L80.2104 74.191H80.2083Z" fill="#E6E6E6"/>
<path d="M82.9865 72.7171C82.6162 72.0613 82.0254 71.558 81.319 71.2965C80.6127 71.0351 79.8366 71.0325 79.1285 71.2892C78.7766 71.4177 78.4539 71.6154 78.1797 71.8708C77.9055 72.1261 77.6853 72.4338 77.532 72.7757C77.5014 72.8484 77.4834 72.9248 77.4584 72.9993C77.4237 73.0554 77.382 73.1061 77.3508 73.1648C77.0188 73.8266 76.9278 74.5834 77.0937 75.305C77.2596 76.0266 77.6719 76.6678 78.2597 77.118C78.8474 77.5683 79.5738 77.7996 80.3137 77.7719C81.0536 77.7443 81.7607 77.4595 82.3132 76.9666C82.8939 76.4417 83.2773 75.7338 83.3998 74.9607C83.5223 74.1876 83.3765 73.3958 82.9865 72.7171ZM80.9797 74.0778C80.9863 74.1183 80.9839 74.1554 80.9797 74.0778V74.0778ZM80.7757 73.614C80.7679 73.6049 80.7689 73.6059 80.7757 73.614V73.614ZM79.8766 73.9755C79.8646 73.957 79.8634 73.9539 79.8766 73.9755V73.9755ZM80.0897 74.1562C80.1405 74.1735 80.1204 74.1698 80.0897 74.1562V74.1562ZM80.1849 74.2015L80.206 74.1919C80.2008 74.1923 80.1956 74.1913 80.191 74.1889L80.1916 74.1888L80.2082 74.1909L80.2113 74.1895L80.2017 74.1872C80.21 74.1869 80.2109 74.1881 80.2115 74.1894C80.3068 74.1457 80.2423 74.1667 80.187 74.1838L80.1833 74.183C80.1488 74.1655 80.1117 74.1536 80.0735 74.1477C80.0699 74.1458 80.0657 74.1443 80.0628 74.1422C80.0321 74.1204 79.8771 73.9992 80.0209 74.1262C79.9896 74.0986 79.9587 74.0714 79.9292 74.0416C79.9119 74.0238 79.8961 74.0044 79.8822 73.9838C79.8634 73.9515 79.8451 73.9188 79.8273 73.8859L79.8247 73.8681C79.8223 73.8533 79.8206 73.8472 79.8186 73.8383C79.8195 73.8292 79.821 73.8193 79.8224 73.8098C79.8332 73.781 79.84 73.7509 79.8428 73.7202L79.849 73.7124C79.872 73.6803 79.8921 73.6428 79.9141 73.6095C79.798 73.7858 79.9595 73.59 79.9716 73.5652C79.9736 73.561 79.97 73.5633 79.9709 73.5603C79.9756 73.5577 79.9742 73.5595 79.9798 73.5562C80.0158 73.535 80.0499 73.5114 80.0865 73.4911C80.13 73.467 80.3014 73.4183 80.1236 73.4691C80.164 73.4576 80.2028 73.443 80.2436 73.4324C80.251 73.4305 80.3109 73.4221 80.3431 73.4163C80.3714 73.4156 80.3989 73.4147 80.4018 73.4147C80.4151 73.4149 80.4284 73.4165 80.4417 73.4171C80.4122 73.4211 80.5429 73.4493 80.5818 73.4553C80.5874 73.4597 80.5902 73.4625 80.5979 73.4681C80.6307 73.4921 80.6706 73.5134 80.7053 73.5358C80.5503 73.4357 80.7073 73.5438 80.7369 73.5734C80.7546 73.5911 80.7709 73.6099 80.7876 73.6286C80.8028 73.6463 80.8166 73.6652 80.8288 73.6852C80.8542 73.7317 80.8813 73.7788 80.908 73.8246L80.9154 73.8364C80.9152 73.8379 80.9151 73.8394 80.9151 73.8409C80.929 73.9152 80.9496 73.9881 80.9765 74.0587C80.9778 74.0647 80.9788 74.0707 80.9795 74.0768C80.982 74.1175 80.9854 74.1581 80.9855 74.199L80.9851 74.2072C80.8617 74.1429 80.7248 74.1089 80.5857 74.1079C80.4466 74.1069 80.3092 74.139 80.1849 74.2015Z" fill="#E6E6E6"/>
<path d="M80.2128 74.1908L80.2104 74.1911C80.2134 74.1915 80.2123 74.1909 80.2128 74.1908Z" fill="#E6E6E6"/>
<path d="M80.2115 74.1894L80.2135 74.1904L80.2115 74.1894Z" fill="#E6E6E6"/>
<path d="M80.2133 74.19C80.2156 74.1907 80.2134 74.1906 80.2128 74.1908L80.2133 74.19Z" fill="#E6E6E6"/>
<path d="M80.2126 74.1898L80.2137 74.1901L80.2126 74.1898Z" fill="#E6E6E6"/>
<path d="M113.327 81.667L113.329 81.668L113.327 81.667Z" fill="#E6E6E6"/>
<path d="M116.102 57.7619C115.731 57.1061 115.14 56.6028 114.434 56.3414C113.728 56.08 112.952 56.0774 112.244 56.3341C111.892 56.4625 111.569 56.6603 111.295 56.9156C111.02 57.1709 110.8 57.4786 110.647 57.8206C110.616 57.8932 110.598 57.9696 110.573 58.0441C110.539 58.1002 110.497 58.1509 110.466 58.2096C110.134 58.8714 110.043 59.6283 110.209 60.3498C110.375 61.0714 110.787 61.7126 111.375 62.1629C111.962 62.6132 112.689 62.8444 113.429 62.8167C114.169 62.7891 114.876 62.5043 115.428 62.0114C116.009 61.4865 116.392 60.7786 116.515 60.0055C116.637 59.2324 116.491 58.4406 116.102 57.7619ZM114.095 59.1226C114.101 59.1631 114.099 59.2002 114.095 59.1226V59.1226ZM113.891 58.6588C113.883 58.6498 113.884 58.6508 113.891 58.6588V58.6588ZM112.992 59.0203C112.98 59.0018 112.978 58.9987 112.992 59.0203V59.0203ZM113.205 59.201C113.255 59.2183 113.235 59.2147 113.205 59.201V59.201ZM113.3 59.2464L113.321 59.2367C113.316 59.2372 113.311 59.2362 113.306 59.2337L113.307 59.2336L113.323 59.2357L113.326 59.2343L113.317 59.2321C113.325 59.2318 113.326 59.2329 113.326 59.2342C113.422 59.1906 113.357 59.2116 113.302 59.2287L113.298 59.2278C113.264 59.2103 113.227 59.1984 113.188 59.1926C113.185 59.1906 113.181 59.1892 113.178 59.187C113.147 59.1652 112.992 59.0441 113.136 59.1711C113.105 59.1434 113.074 59.1163 113.044 59.0864C113.027 59.0686 113.011 59.0493 112.997 59.0287C112.978 58.9963 112.96 58.9636 112.942 58.9307L112.94 58.9129C112.937 58.8982 112.936 58.892 112.934 58.8832C112.935 58.874 112.936 58.8642 112.937 58.8546C112.948 58.8258 112.955 58.7957 112.958 58.7651L112.964 58.7572C112.987 58.7251 113.007 58.6877 113.029 58.6543C112.913 58.8307 113.074 58.6348 113.087 58.61C113.089 58.6058 113.085 58.6081 113.086 58.6052C113.091 58.6025 113.089 58.6043 113.095 58.601C113.131 58.5798 113.165 58.5562 113.201 58.536C113.245 58.5118 113.416 58.4632 113.239 58.514C113.279 58.5024 113.318 58.4879 113.359 58.4772C113.366 58.4753 113.426 58.4669 113.458 58.4611C113.486 58.4604 113.514 58.4595 113.517 58.4596C113.53 58.4597 113.543 58.4614 113.557 58.4619C113.527 58.4659 113.658 58.4942 113.697 58.5001C113.702 58.5045 113.705 58.5074 113.713 58.5129C113.746 58.5369 113.786 58.5582 113.82 58.5806C113.665 58.4805 113.822 58.5886 113.852 58.6182C113.87 58.6359 113.886 58.6548 113.903 58.6734C113.918 58.6911 113.932 58.71 113.944 58.73C113.969 58.7766 113.996 58.8237 114.023 58.8695L114.03 58.8812C114.03 58.8827 114.03 58.8842 114.03 58.8858C114.044 58.96 114.065 59.0329 114.091 59.1035C114.093 59.1095 114.094 59.1156 114.095 59.1217C114.097 59.1623 114.1 59.2029 114.1 59.2438L114.1 59.2521C113.977 59.1877 113.84 59.1537 113.701 59.1527C113.562 59.1517 113.424 59.1838 113.3 59.2464Z" fill="#E6E6E6"/>
<path d="M113.323 81.6685L113.321 81.6696L113.325 81.6685H113.323Z" fill="#E6E6E6"/>
<path d="M113.328 81.6674L113.329 81.6677L113.328 81.6674Z" fill="#E6E6E6"/>
<path d="M113.328 81.6684L113.325 81.6687C113.328 81.6691 113.327 81.6685 113.328 81.6684Z" fill="#E6E6E6"/>
<path d="M113.328 81.6675C113.331 81.6683 113.328 81.6681 113.328 81.6683L113.328 81.6675Z" fill="#E6E6E6"/>
<path d="M149.751 98.8886C149.38 98.2328 148.789 97.7295 148.083 97.4681C147.377 97.2067 146.601 97.2041 145.893 97.4608C145.541 97.5892 145.218 97.787 144.944 98.0423C144.67 98.2976 144.449 98.6054 144.296 98.9473C144.265 99.0199 144.248 99.0964 144.222 99.1708C144.188 99.2269 144.146 99.2776 144.115 99.3364C143.783 99.9981 143.692 100.755 143.858 101.477C144.024 102.198 144.436 102.839 145.024 103.29C145.612 103.74 146.338 103.971 147.078 103.943C147.818 103.916 148.525 103.631 149.077 103.138C149.658 102.613 150.041 101.905 150.164 101.132C150.286 100.359 150.141 99.5673 149.751 98.8886ZM147.744 100.249C147.75 100.29 147.748 100.327 147.744 100.249V100.249ZM147.54 99.7855C147.532 99.7765 147.533 99.7775 147.54 99.7855V99.7855ZM146.641 100.147C146.629 100.129 146.628 100.125 146.641 100.147V100.147ZM146.854 100.328C146.905 100.345 146.885 100.341 146.854 100.328V100.328ZM146.949 100.373L146.97 100.363C146.965 100.364 146.96 100.363 146.955 100.36L146.956 100.36L146.972 100.362L146.975 100.361L146.966 100.359C146.974 100.358 146.975 100.36 146.976 100.361C147.071 100.317 147.006 100.338 146.951 100.355L146.947 100.355C146.913 100.337 146.876 100.325 146.838 100.319C146.834 100.317 146.83 100.316 146.827 100.314C146.796 100.292 146.641 100.171 146.785 100.298C146.754 100.27 146.723 100.243 146.693 100.213C146.676 100.195 146.66 100.176 146.646 100.155C146.627 100.123 146.609 100.09 146.591 100.057L146.589 100.04C146.586 100.025 146.585 100.019 146.583 100.01C146.584 100.001 146.585 99.9909 146.587 99.9813C146.597 99.9525 146.604 99.9224 146.607 99.8918L146.613 99.8839C146.636 99.8518 146.656 99.8144 146.678 99.781C146.562 99.9574 146.724 99.7615 146.736 99.7367C146.738 99.7325 146.734 99.7348 146.735 99.7319C146.74 99.7293 146.738 99.731 146.744 99.7277C146.78 99.7065 146.814 99.6829 146.851 99.6627C146.894 99.6385 147.066 99.5899 146.888 99.6407C146.928 99.6291 146.967 99.6146 147.008 99.6039C147.015 99.602 147.075 99.5936 147.107 99.5878C147.136 99.5871 147.163 99.5862 147.166 99.5863C147.179 99.5864 147.192 99.5881 147.206 99.5887C147.176 99.5926 147.307 99.6209 147.346 99.6268C147.351 99.6312 147.354 99.6341 147.362 99.6396C147.395 99.6636 147.435 99.685 147.469 99.7074C147.314 99.6072 147.471 99.7153 147.501 99.7449C147.519 99.7626 147.535 99.7815 147.552 99.8001C147.567 99.8178 147.581 99.8367 147.593 99.8567C147.618 99.9033 147.645 99.9504 147.672 99.9962L147.679 100.008C147.679 100.009 147.679 100.011 147.679 100.012C147.693 100.087 147.714 100.16 147.741 100.23C147.742 100.236 147.743 100.242 147.744 100.248C147.746 100.289 147.749 100.33 147.75 100.371L147.749 100.379C147.626 100.314 147.489 100.28 147.35 100.279C147.211 100.278 147.073 100.311 146.949 100.373Z" fill="#E6E6E6"/>
<path d="M146.972 65.1111L146.97 65.1121L146.975 65.1111H146.972Z" fill="#E6E6E6"/>
<path d="M146.977 65.1099L146.978 65.1102L146.977 65.1099Z" fill="#E6E6E6"/>
<path d="M146.977 65.1108L146.975 65.1112C146.978 65.1115 146.977 65.111 146.977 65.1108Z" fill="#E6E6E6"/>
<path d="M146.977 65.11C146.98 65.1108 146.977 65.1106 146.977 65.1108L146.977 65.11Z" fill="#E6E6E6"/>
<path d="M146.976 65.1094L146.978 65.1104L146.976 65.1094Z" fill="#E6E6E6"/>
<path d="M178.489 75.7921L178.491 75.7925L178.489 75.7921Z" fill="#E6E6E6"/>
<path d="M181.263 74.3194C180.893 73.6636 180.302 73.1603 179.596 72.8989C178.89 72.6374 178.113 72.6349 177.405 72.8915C177.053 73.02 176.731 73.2178 176.457 73.4731C176.182 73.7284 175.962 74.0361 175.809 74.3781C175.778 74.4507 175.76 74.5271 175.735 74.6016C175.7 74.6577 175.659 74.7084 175.628 74.7671C175.296 75.4289 175.205 76.1858 175.371 76.9073C175.536 77.6289 175.949 78.2701 176.536 78.7204C177.124 79.1707 177.851 79.4019 178.59 79.3742C179.33 79.3466 180.037 79.0618 180.59 78.5689C181.171 78.044 181.554 77.3361 181.677 76.563C181.799 75.7899 181.653 74.9981 181.263 74.3194ZM179.257 75.6801C179.263 75.7206 179.261 75.7577 179.257 75.6801V75.6801ZM179.053 75.2163C179.045 75.2073 179.046 75.2083 179.053 75.2163V75.2163ZM178.153 75.5778C178.141 75.5593 178.14 75.5562 178.153 75.5778V75.5778ZM178.367 75.7585C178.417 75.7758 178.397 75.7722 178.367 75.7585V75.7585ZM178.462 75.8039L178.483 75.7942C178.478 75.7947 178.472 75.7937 178.468 75.7912L178.468 75.7911L178.485 75.7932L178.488 75.7918L178.479 75.7896C178.487 75.7893 178.488 75.7904 178.488 75.7917C178.584 75.7481 178.519 75.7691 178.464 75.7862L178.46 75.7853C178.426 75.7678 178.389 75.7559 178.35 75.7501C178.347 75.7481 178.343 75.7466 178.34 75.7445C178.309 75.7227 178.154 75.6016 178.298 75.7286C178.266 75.7009 178.235 75.6738 178.206 75.6439C178.189 75.6261 178.173 75.6068 178.159 75.5862C178.14 75.5538 178.122 75.5211 178.104 75.4882L178.101 75.4704C178.099 75.4557 178.097 75.4495 178.095 75.4407C178.096 75.4315 178.098 75.4217 178.099 75.4121C178.11 75.3833 178.117 75.3532 178.12 75.3226L178.126 75.3147C178.149 75.2826 178.169 75.2452 178.191 75.2118C178.075 75.3881 178.236 75.1923 178.248 75.1675C178.25 75.1633 178.247 75.1656 178.248 75.1627C178.252 75.16 178.251 75.1618 178.257 75.1585C178.293 75.1373 178.327 75.1137 178.363 75.0934C178.407 75.0693 178.578 75.0207 178.4 75.0715C178.441 75.0599 178.48 75.0454 178.52 75.0347C178.528 75.0328 178.588 75.0244 178.62 75.0186C178.648 75.0179 178.676 75.017 178.679 75.0171C178.692 75.0172 178.705 75.0189 178.718 75.0194C178.689 75.0234 178.82 75.0517 178.859 75.0576C178.864 75.062 178.867 75.0649 178.875 75.0704C178.907 75.0944 178.947 75.1157 178.982 75.1381C178.827 75.038 178.984 75.1461 179.014 75.1757C179.031 75.1934 179.048 75.2123 179.064 75.2309C179.08 75.2486 179.093 75.2675 179.106 75.2875C179.131 75.3341 179.158 75.3812 179.185 75.427L179.192 75.4387C179.192 75.4402 179.192 75.4417 179.192 75.4433C179.206 75.5175 179.226 75.5904 179.253 75.661C179.255 75.667 179.256 75.6731 179.256 75.6791C179.259 75.7198 179.262 75.7604 179.262 75.8013L179.262 75.8096C179.139 75.7452 179.002 75.7112 178.862 75.7102C178.723 75.7092 178.586 75.7413 178.462 75.8039Z" fill="#E6E6E6"/>
<path d="M178.485 75.7933L178.483 75.7944L178.487 75.7933H178.485Z" fill="#E6E6E6"/>
<path d="M178.488 75.7917L178.49 75.7927L178.488 75.7917Z" fill="#E6E6E6"/>
<path d="M178.49 75.7923C178.492 75.793 178.49 75.7929 178.49 75.7931L178.49 75.7923Z" fill="#E6E6E6"/>
<path d="M178.49 75.7931L178.487 75.7935C178.49 75.7938 178.489 75.7933 178.49 75.7931Z" fill="#E6E6E6"/>
<path d="M169.85 100.271L145.015 101.651C144.875 101.659 144.737 101.613 144.631 101.522C144.524 101.431 144.456 101.303 144.44 101.164C144.425 101.024 144.464 100.884 144.549 100.773C144.634 100.661 144.758 100.586 144.897 100.564L170.28 96.4334L169.85 100.271Z" fill="#3F3D56"/>
<path d="M201.411 155.56L210.769 139.815L217.686 143.082C217.686 143.082 205.767 157.969 205.388 158.397C205.55 159.121 205.489 159.877 205.213 160.565C204.937 161.253 204.458 161.841 203.84 162.251C203.222 162.662 202.494 162.875 201.753 162.862C201.011 162.85 200.291 162.612 199.687 162.182C199.084 161.751 198.625 161.147 198.372 160.45C198.119 159.753 198.083 158.996 198.27 158.278C198.457 157.56 198.857 156.916 199.418 156.431C199.979 155.945 200.674 155.642 201.411 155.56Z" fill="#FFB6B6"/>
<path d="M205.304 118.986L220.466 126.897C221.413 127.58 222.208 128.452 222.799 129.46C223.39 130.467 223.764 131.586 223.898 132.746C224.032 133.907 223.922 135.082 223.576 136.197C223.229 137.313 222.654 138.343 221.887 139.224L211.434 151.214L206.88 145.044L210.39 137.705L203.594 135.913L205.304 118.986Z" fill="#FFB500"/>
<path d="M162.096 100.528L160.388 118.764L152.738 118.777C152.738 118.777 157.127 100.219 157.287 99.6691C156.829 99.085 156.561 98.376 156.515 97.6358C156.47 96.8955 156.651 96.159 157.033 95.5236C157.415 94.8882 157.982 94.3838 158.657 94.0773C159.332 93.7707 160.085 93.6764 160.815 93.8068C161.545 93.9372 162.218 94.2862 162.746 94.8075C163.273 95.3289 163.63 95.9981 163.769 96.7266C163.907 97.4551 163.822 98.2086 163.523 98.8874C163.224 99.5662 162.727 100.138 162.096 100.528V100.528Z" fill="#FFB6B6"/>
<path d="M177.323 137.821L159.716 134.592C152.302 133.7 149.259 128.822 150.597 124.064L154.902 108.75L161.661 112.374L161.635 120.509L171.096 119.215L177.323 137.821Z" fill="#FFB500"/>
<path d="M170.116 263.848H165.274L162.971 245.174H170.117L170.116 263.848Z" fill="#FFB6B6"/>
<path d="M170.286 268.898L155.399 268.898V268.709C155.399 267.173 156.009 265.699 157.096 264.612C158.183 263.525 159.657 262.915 161.193 262.915H161.194L163.913 260.852L168.987 262.915L170.286 262.915L170.286 268.898Z" fill="#2F2E41"/>
<path d="M204.371 263.848H209.212L211.515 245.174H204.37L204.371 263.848Z" fill="#FFB6B6"/>
<path d="M204.2 268.898L219.088 268.898V268.709C219.088 267.173 218.477 265.699 217.391 264.612C216.304 263.525 214.83 262.915 213.293 262.915H213.293L210.573 260.852L205.5 262.915L204.2 262.915L204.2 268.898Z" fill="#2F2E41"/>
<path d="M162.758 231.451C162.83 230.386 163.398 224.493 163.398 224.493L164.76 211.996L167.16 178.87L169.299 170.162L179.888 174.288L188.481 170.168L198.693 173.433L206.646 176.415C206.646 176.415 206.659 177.692 206.721 179.234C206.802 181.253 206.945 183.728 207.286 184.371C207.854 185.508 207.711 191.612 207.711 191.612C207.711 191.612 208.276 204.03 208.988 205.392C209.699 206.754 209.842 209.59 209.628 210.158C209.413 210.727 210.339 225.64 210.339 225.64C210.339 225.64 212.716 252.033 211.225 256.012C209.734 259.992 204.099 257.385 204.099 257.385C204.099 257.385 204.372 256.323 202.738 255.822C201.104 255.322 196.127 217.899 196.127 217.899C196.127 217.899 195.201 210.226 194.35 208.027C193.499 205.828 192.716 199.649 192.716 199.649C192.716 199.649 187.459 189.423 187.391 187.149C187.391 187.149 186.704 185.021 186.053 187.363C185.403 189.705 183.487 195.316 183.487 195.316L181.618 202.206L179.419 212.5L177.996 221.167C177.996 221.167 175.865 232.67 175.524 233.167C175.184 233.664 175.524 244.173 175.524 244.173C175.524 244.173 173.877 253.123 171.548 254.685C169.22 256.248 163.05 254.71 163.05 254.71C163.05 254.71 162.687 232.517 162.758 231.451Z" fill="#2F2E41"/>
<path d="M170.674 142.145L169.321 159.673L167.288 161.777C167.105 161.967 166.962 162.192 166.868 162.438C166.773 162.684 166.729 162.947 166.739 163.211C166.749 163.474 166.811 163.733 166.923 163.972C167.035 164.211 167.194 164.425 167.391 164.601L166.271 166.521L165.875 172.573C165.761 173.044 165.754 173.534 165.852 174.008C165.95 174.482 166.152 174.929 166.442 175.316C166.733 175.703 167.106 176.021 167.534 176.248C167.962 176.475 168.435 176.604 168.918 176.626L203.973 178.273C204.454 178.296 204.934 178.213 205.38 178.029C205.825 177.846 206.225 177.567 206.55 177.213C206.876 176.858 207.12 176.436 207.265 175.977C207.409 175.518 207.452 175.032 207.388 174.555L204.407 152.115V150.437L203.073 147.196L203.759 136.341L205.354 119.111L196.081 116.716L191.053 113.256L182.317 113.395L177.017 117.748L169.95 118.855L164.605 119.918L163.924 121.397L165.286 121.101L170.222 140.351L170.674 142.145Z" fill="#FFB500"/>
<path d="M186.49 110.907C192.173 110.907 196.78 106.3 196.78 100.617C196.78 94.9341 192.173 90.327 186.49 90.327C180.807 90.327 176.199 94.9341 176.199 100.617C176.199 106.3 180.807 110.907 186.49 110.907Z" fill="#FFB6B6"/>
<path d="M184.009 110.244L191.443 109.864C192.396 109.816 193.436 109.732 194.129 109.076C194.501 108.671 194.788 108.195 194.971 107.676C195.659 106.08 196.346 104.483 197.016 102.879C197.942 100.66 198.852 98.3177 198.616 95.925C198.56 94.8323 198.102 93.7989 197.329 93.0243C196.935 92.651 196.428 92.4188 195.888 92.3641C195.348 92.3094 194.805 92.4351 194.344 92.7217C194.229 91.9649 193.944 91.2441 193.51 90.6137C193.076 89.9834 192.504 89.4599 191.838 89.0831C190.492 88.3398 188.956 88.0141 187.425 88.1475C185.203 88.2907 183.081 89.1268 181.359 90.5381C180.875 90.985 180.357 91.3949 179.812 91.7643C179.537 91.9478 179.228 92.0735 178.903 92.1336C178.579 92.1936 178.245 92.1869 177.923 92.1137C177.604 92.0284 177.327 91.8306 177.142 91.5568C176.958 91.2829 176.879 90.9516 176.92 90.624C176.396 91.0155 176.037 91.588 175.913 92.2298C175.789 92.8717 175.908 93.5369 176.247 94.0956C175.861 94.2573 175.44 94.3164 175.025 94.2673C174.609 94.2181 174.213 94.0623 173.876 93.815C173.514 93.9945 173.194 94.2475 172.936 94.5578C172.677 94.8682 172.487 95.229 172.376 95.6173C172.265 96.0055 172.237 96.4126 172.293 96.8124C172.349 97.2123 172.487 97.5961 172.7 97.9393C172.912 98.2825 173.194 98.5774 173.528 98.8054C173.861 99.0333 174.238 99.1891 174.635 99.2629C175.032 99.3366 175.44 99.3266 175.833 99.2336C176.225 99.1406 176.595 98.9665 176.916 98.7226C177.367 99.3546 177.199 100.213 177.141 100.988C177.082 101.762 177.29 102.724 178.036 102.939C179.045 103.228 179.863 101.869 180.912 101.883C181.171 101.905 181.421 101.989 181.639 102.13C181.858 102.271 182.038 102.463 182.164 102.69C182.412 103.147 182.581 103.641 182.665 104.153L184.009 110.201" fill="#2F2E41"/>
<path d="M473.896 202.769C473.896 201.176 473.36 199.882 472.703 199.879H293.591C292.931 199.882 292.399 201.176 292.396 202.769V268.363C292.396 268.511 292.341 268.654 292.242 268.763C292.143 268.873 292.006 268.942 291.859 268.956C291.378 269.002 290.897 269.045 290.416 269.085C290.405 269.085 290.393 269.088 290.381 269.088C290.119 269.111 289.858 269.129 289.596 269.15H289.593C289.458 268.901 289.325 268.65 289.194 268.397C289.149 268.312 289.126 268.217 289.126 268.121V199.02C289.126 198.58 289.144 198.137 289.174 197.7C289.216 197.1 289.291 196.503 289.397 195.911C289.899 193.149 291.035 191.279 292.325 191.273H473.967C474.155 191.274 474.341 191.314 474.514 191.389C474.767 191.501 474.997 191.662 475.189 191.862C475.449 192.133 475.673 192.438 475.852 192.768C476.592 194.243 477.018 195.856 477.103 197.504C477.103 197.522 477.106 197.54 477.106 197.558C477.148 198.039 477.169 198.53 477.166 199.02L477.207 205.391L477.234 209.19L477.314 221.112L477.344 225.345L477.475 268.808C477.475 268.966 477.412 269.117 477.301 269.229C477.189 269.34 477.038 269.403 476.88 269.403H474.49C474.332 269.403 474.181 269.34 474.07 269.229C473.958 269.117 473.896 268.966 473.896 268.808V202.769Z" fill="#E6E6E6"/>
<path d="M425.225 161.462H405.926C405.652 161.463 405.391 161.572 405.198 161.765C405.005 161.958 404.897 162.22 404.897 162.493V192.981H426.256V162.493C426.256 162.358 426.229 162.224 426.178 162.099C426.126 161.974 426.05 161.86 425.954 161.764C425.858 161.668 425.745 161.592 425.62 161.541C425.495 161.489 425.361 161.462 425.225 161.462ZM415.64 178.785C415.037 178.782 414.459 178.541 414.032 178.115C413.605 177.688 413.364 177.11 413.361 176.506V172.99C413.361 172.385 413.601 171.806 414.029 171.378C414.456 170.951 415.036 170.711 415.64 170.711C416.245 170.711 416.824 170.951 417.252 171.378C417.679 171.806 417.919 172.385 417.919 172.99V176.506C417.916 177.11 417.675 177.688 417.249 178.115C416.822 178.541 416.244 178.782 415.64 178.785Z" fill="#CCCCCC"/>
<path d="M404.831 192.006V194.947C404.831 195.1 404.892 195.246 405 195.353C405.108 195.461 405.254 195.522 405.406 195.522H425.747C425.899 195.521 426.045 195.461 426.153 195.353C426.261 195.245 426.321 195.099 426.322 194.947V192.006H404.831Z" fill="#3F3D56"/>
<path d="M457.184 113.883H374.685C373.976 113.884 373.297 114.166 372.796 114.667C372.295 115.168 372.012 115.848 372.011 116.557V172.227C372.012 172.936 372.294 173.615 372.795 174.117C373.297 174.618 373.976 174.9 374.685 174.901H457.184C457.892 174.9 458.572 174.618 459.073 174.117C459.575 173.615 459.857 172.936 459.857 172.227V116.557C459.856 115.848 459.574 115.168 459.073 114.667C458.572 114.166 457.892 113.884 457.184 113.883Z" fill="#E6E6E6"/>
<path d="M456.495 115.814H375.375C374.995 115.815 374.631 115.966 374.363 116.235C374.095 116.503 373.945 116.867 373.945 117.247V171.537C373.945 171.916 374.096 172.28 374.364 172.548C374.632 172.816 374.995 172.967 375.375 172.967H456.495C456.874 172.967 457.237 172.816 457.505 172.548C457.773 172.28 457.924 171.916 457.925 171.537V117.247C457.925 116.867 457.774 116.503 457.506 116.235C457.238 115.966 456.875 115.815 456.495 115.814Z" fill="white"/>
<path d="M440.694 196.546H392.432C392.3 196.546 392.169 196.516 392.05 196.46C391.931 196.403 391.826 196.32 391.742 196.217C391.659 196.115 391.6 195.995 391.569 195.867C391.538 195.738 391.536 195.604 391.563 195.475L392.312 191.918C392.354 191.719 392.464 191.541 392.622 191.413C392.78 191.285 392.977 191.214 393.181 191.214H439.945C440.149 191.214 440.346 191.285 440.504 191.413C440.662 191.541 440.771 191.719 440.814 191.918L441.563 195.475C441.59 195.604 441.588 195.738 441.557 195.867C441.526 195.995 441.467 196.115 441.383 196.217C441.3 196.32 441.195 196.403 441.076 196.46C440.957 196.516 440.826 196.546 440.694 196.546Z" fill="#CCCCCC"/>
<path d="M394.749 191.854H393.784C393.64 191.854 393.523 191.971 393.523 192.115V192.485C393.523 192.629 393.64 192.746 393.784 192.746H394.749C394.893 192.746 395.01 192.629 395.01 192.485V192.115C395.01 191.971 394.893 191.854 394.749 191.854Z" fill="#E6E6E6"/>
<path d="M397.722 191.854H396.757C396.613 191.854 396.496 191.971 396.496 192.115V192.485C396.496 192.629 396.613 192.746 396.757 192.746H397.722C397.866 192.746 397.983 192.629 397.983 192.485V192.115C397.983 191.971 397.866 191.854 397.722 191.854Z" fill="#E6E6E6"/>
<path d="M400.695 191.854H399.73C399.586 191.854 399.469 191.971 399.469 192.115V192.485C399.469 192.629 399.586 192.746 399.73 192.746H400.695C400.839 192.746 400.955 192.629 400.955 192.485V192.115C400.955 191.971 400.839 191.854 400.695 191.854Z" fill="#E6E6E6"/>
<path d="M403.668 191.854H402.703C402.559 191.854 402.442 191.971 402.442 192.115V192.485C402.442 192.629 402.559 192.746 402.703 192.746H403.668C403.812 192.746 403.928 192.629 403.928 192.485V192.115C403.928 191.971 403.812 191.854 403.668 191.854Z" fill="#E6E6E6"/>
<path d="M406.64 191.854H405.675C405.531 191.854 405.415 191.971 405.415 192.115V192.485C405.415 192.629 405.531 192.746 405.675 192.746H406.64C406.784 192.746 406.901 192.629 406.901 192.485V192.115C406.901 191.971 406.784 191.854 406.64 191.854Z" fill="#E6E6E6"/>
<path d="M409.613 191.854H408.648C408.504 191.854 408.388 191.971 408.388 192.115V192.485C408.388 192.629 408.504 192.746 408.648 192.746H409.613C409.757 192.746 409.874 192.629 409.874 192.485V192.115C409.874 191.971 409.757 191.854 409.613 191.854Z" fill="#E6E6E6"/>
<path d="M412.586 191.854H411.621C411.477 191.854 411.36 191.971 411.36 192.115V192.485C411.36 192.629 411.477 192.746 411.621 192.746H412.586C412.73 192.746 412.847 192.629 412.847 192.485V192.115C412.847 191.971 412.73 191.854 412.586 191.854Z" fill="#E6E6E6"/>
<path d="M415.559 191.854H414.594C414.45 191.854 414.333 191.971 414.333 192.115V192.485C414.333 192.629 414.45 192.746 414.594 192.746H415.559C415.703 192.746 415.82 192.629 415.82 192.485V192.115C415.82 191.971 415.703 191.854 415.559 191.854Z" fill="#E6E6E6"/>
<path d="M418.532 191.854H417.567C417.423 191.854 417.306 191.971 417.306 192.115V192.485C417.306 192.629 417.423 192.746 417.567 192.746H418.532C418.676 192.746 418.793 192.629 418.793 192.485V192.115C418.793 191.971 418.676 191.854 418.532 191.854Z" fill="#E6E6E6"/>
<path d="M421.505 191.854H420.54C420.396 191.854 420.279 191.971 420.279 192.115V192.485C420.279 192.629 420.396 192.746 420.54 192.746H421.505C421.649 192.746 421.765 192.629 421.765 192.485V192.115C421.765 191.971 421.649 191.854 421.505 191.854Z" fill="#E6E6E6"/>
<path d="M424.478 191.854H423.513C423.369 191.854 423.252 191.971 423.252 192.115V192.485C423.252 192.629 423.369 192.746 423.513 192.746H424.478C424.622 192.746 424.738 192.629 424.738 192.485V192.115C424.738 191.971 424.622 191.854 424.478 191.854Z" fill="#E6E6E6"/>
<path d="M427.45 191.854H426.485C426.341 191.854 426.225 191.971 426.225 192.115V192.485C426.225 192.629 426.341 192.746 426.485 192.746H427.45C427.594 192.746 427.711 192.629 427.711 192.485V192.115C427.711 191.971 427.594 191.854 427.45 191.854Z" fill="#E6E6E6"/>
<path d="M430.423 191.854H429.458C429.314 191.854 429.198 191.971 429.198 192.115V192.485C429.198 192.629 429.314 192.746 429.458 192.746H430.423C430.567 192.746 430.684 192.629 430.684 192.485V192.115C430.684 191.971 430.567 191.854 430.423 191.854Z" fill="#E6E6E6"/>
<path d="M433.396 191.854H432.431C432.287 191.854 432.17 191.971 432.17 192.115V192.485C432.17 192.629 432.287 192.746 432.431 192.746H433.396C433.54 192.746 433.657 192.629 433.657 192.485V192.115C433.657 191.971 433.54 191.854 433.396 191.854Z" fill="#E6E6E6"/>
<path d="M436.369 191.854H435.404C435.26 191.854 435.143 191.971 435.143 192.115V192.485C435.143 192.629 435.26 192.746 435.404 192.746H436.369C436.513 192.746 436.63 192.629 436.63 192.485V192.115C436.63 191.971 436.513 191.854 436.369 191.854Z" fill="#E6E6E6"/>
<path d="M439.342 191.854H438.377C438.233 191.854 438.116 191.971 438.116 192.115V192.485C438.116 192.629 438.233 192.746 438.377 192.746H439.342C439.486 192.746 439.603 192.629 439.603 192.485V192.115C439.603 191.971 439.486 191.854 439.342 191.854Z" fill="#E6E6E6"/>
<path d="M394.714 193.34H393.749C393.605 193.34 393.488 193.457 393.488 193.601V193.971C393.488 194.115 393.605 194.232 393.749 194.232H394.714C394.858 194.232 394.974 194.115 394.974 193.971V193.601C394.974 193.457 394.858 193.34 394.714 193.34Z" fill="#E6E6E6"/>
<path d="M397.687 193.34H396.722C396.578 193.34 396.461 193.457 396.461 193.601V193.971C396.461 194.115 396.578 194.232 396.722 194.232H397.687C397.831 194.232 397.947 194.115 397.947 193.971V193.601C397.947 193.457 397.831 193.34 397.687 193.34Z" fill="#E6E6E6"/>
<path d="M400.66 193.34H399.695C399.551 193.34 399.434 193.457 399.434 193.601V193.971C399.434 194.115 399.551 194.232 399.695 194.232H400.66C400.804 194.232 400.92 194.115 400.92 193.971V193.601C400.92 193.457 400.804 193.34 400.66 193.34Z" fill="#E6E6E6"/>
<path d="M403.632 193.34H402.668C402.523 193.34 402.407 193.457 402.407 193.601V193.971C402.407 194.115 402.523 194.232 402.668 194.232H403.632C403.776 194.232 403.893 194.115 403.893 193.971V193.601C403.893 193.457 403.776 193.34 403.632 193.34Z" fill="#E6E6E6"/>
<path d="M406.605 193.34H405.64C405.496 193.34 405.38 193.457 405.38 193.601V193.971C405.38 194.115 405.496 194.232 405.64 194.232H406.605C406.749 194.232 406.866 194.115 406.866 193.971V193.601C406.866 193.457 406.749 193.34 406.605 193.34Z" fill="#E6E6E6"/>
<path d="M409.578 193.34H408.613C408.469 193.34 408.352 193.457 408.352 193.601V193.971C408.352 194.115 408.469 194.232 408.613 194.232H409.578C409.722 194.232 409.839 194.115 409.839 193.971V193.601C409.839 193.457 409.722 193.34 409.578 193.34Z" fill="#E6E6E6"/>
<path d="M412.551 193.34H411.586C411.442 193.34 411.325 193.457 411.325 193.601V193.971C411.325 194.115 411.442 194.232 411.586 194.232H412.551C412.695 194.232 412.812 194.115 412.812 193.971V193.601C412.812 193.457 412.695 193.34 412.551 193.34Z" fill="#E6E6E6"/>
<path d="M415.524 193.34H414.559C414.415 193.34 414.298 193.457 414.298 193.601V193.971C414.298 194.115 414.415 194.232 414.559 194.232H415.524C415.668 194.232 415.785 194.115 415.785 193.971V193.601C415.785 193.457 415.668 193.34 415.524 193.34Z" fill="#E6E6E6"/>
<path d="M418.497 193.34H417.532C417.388 193.34 417.271 193.457 417.271 193.601V193.971C417.271 194.115 417.388 194.232 417.532 194.232H418.497C418.641 194.232 418.757 194.115 418.757 193.971V193.601C418.757 193.457 418.641 193.34 418.497 193.34Z" fill="#E6E6E6"/>
<path d="M421.47 193.34H420.505C420.361 193.34 420.244 193.457 420.244 193.601V193.971C420.244 194.115 420.361 194.232 420.505 194.232H421.47C421.614 194.232 421.73 194.115 421.73 193.971V193.601C421.73 193.457 421.614 193.34 421.47 193.34Z" fill="#E6E6E6"/>
<path d="M424.442 193.34H423.478C423.334 193.34 423.217 193.457 423.217 193.601V193.971C423.217 194.115 423.334 194.232 423.478 194.232H424.442C424.586 194.232 424.703 194.115 424.703 193.971V193.601C424.703 193.457 424.586 193.34 424.442 193.34Z" fill="#E6E6E6"/>
<path d="M427.415 193.34H426.45C426.306 193.34 426.19 193.457 426.19 193.601V193.971C426.19 194.115 426.306 194.232 426.45 194.232H427.415C427.559 194.232 427.676 194.115 427.676 193.971V193.601C427.676 193.457 427.559 193.34 427.415 193.34Z" fill="#E6E6E6"/>
<path d="M430.388 193.34H429.423C429.279 193.34 429.162 193.457 429.162 193.601V193.971C429.162 194.115 429.279 194.232 429.423 194.232H430.388C430.532 194.232 430.649 194.115 430.649 193.971V193.601C430.649 193.457 430.532 193.34 430.388 193.34Z" fill="#E6E6E6"/>
<path d="M433.361 193.34H432.396C432.252 193.34 432.135 193.457 432.135 193.601V193.971C432.135 194.115 432.252 194.232 432.396 194.232H433.361C433.505 194.232 433.622 194.115 433.622 193.971V193.601C433.622 193.457 433.505 193.34 433.361 193.34Z" fill="#E6E6E6"/>
<path d="M436.334 193.34H435.369C435.225 193.34 435.108 193.457 435.108 193.601V193.971C435.108 194.115 435.225 194.232 435.369 194.232H436.334C436.478 194.232 436.595 194.115 436.595 193.971V193.601C436.595 193.457 436.478 193.34 436.334 193.34Z" fill="#E6E6E6"/>
<path d="M439.307 193.34H438.342C438.198 193.34 438.081 193.457 438.081 193.601V193.971C438.081 194.115 438.198 194.232 438.342 194.232H439.307C439.451 194.232 439.567 194.115 439.567 193.971V193.601C439.567 193.457 439.451 193.34 439.307 193.34Z" fill="#E6E6E6"/>
<path d="M419.388 195.124H408.019C407.875 195.124 407.758 195.241 407.758 195.385V195.755C407.758 195.899 407.875 196.016 408.019 196.016H419.388C419.533 196.016 419.649 195.899 419.649 195.755V195.385C419.649 195.241 419.533 195.124 419.388 195.124Z" fill="#E6E6E6"/>
<path d="M452.417 123.294H376.513C376.434 123.292 376.359 123.26 376.304 123.203C376.249 123.147 376.218 123.071 376.218 122.992C376.218 122.913 376.249 122.838 376.304 122.781C376.359 122.725 376.434 122.692 376.513 122.69H452.417C452.496 122.692 452.571 122.725 452.626 122.781C452.682 122.838 452.712 122.913 452.712 122.992C452.712 123.071 452.682 123.147 452.626 123.203C452.571 123.26 452.496 123.292 452.417 123.294Z" fill="#CACACA"/>
<path d="M381.68 121.149C382.657 121.149 383.449 120.34 383.449 119.341C383.449 118.342 382.657 117.532 381.68 117.532C380.703 117.532 379.911 118.342 379.911 119.341C379.911 120.34 380.703 121.149 381.68 121.149Z" fill="#CCCCCC"/>
<path d="M387.791 121.149C388.768 121.149 389.56 120.34 389.56 119.341C389.56 118.342 388.768 117.532 387.791 117.532C386.814 117.532 386.022 118.342 386.022 119.341C386.022 120.34 386.814 121.149 387.791 121.149Z" fill="#CCCCCC"/>
<path d="M393.902 121.149C394.879 121.149 395.671 120.34 395.671 119.341C395.671 118.342 394.879 117.532 393.902 117.532C392.925 117.532 392.133 118.342 392.133 119.341C392.133 120.34 392.925 121.149 393.902 121.149Z" fill="#CCCCCC"/>
<path d="M448.738 117.981H444.397C444.311 117.982 444.229 118.018 444.169 118.079C444.108 118.141 444.075 118.223 444.075 118.309C444.075 118.395 444.108 118.478 444.169 118.539C444.229 118.601 444.311 118.636 444.397 118.638H448.738C448.824 118.636 448.906 118.601 448.966 118.539C449.026 118.478 449.06 118.395 449.06 118.309C449.06 118.223 449.026 118.141 448.966 118.079C448.906 118.018 448.824 117.982 448.738 117.981H448.738Z" fill="#CCCCCC"/>
<path d="M448.738 119.214H444.397C444.311 119.216 444.229 119.251 444.169 119.313C444.108 119.374 444.075 119.457 444.075 119.543C444.075 119.629 444.108 119.712 444.169 119.773C444.229 119.835 444.311 119.87 444.397 119.872H448.738C448.824 119.87 448.906 119.835 448.966 119.773C449.026 119.712 449.06 119.629 449.06 119.543C449.06 119.457 449.026 119.374 448.966 119.313C448.906 119.251 448.824 119.216 448.738 119.214H448.738Z" fill="#CCCCCC"/>
<path d="M448.738 120.447H444.397C444.311 120.448 444.229 120.484 444.169 120.545C444.108 120.607 444.075 120.689 444.075 120.775C444.075 120.861 444.108 120.944 444.169 121.005C444.229 121.067 444.311 121.102 444.397 121.104H448.738C448.824 121.102 448.906 121.067 448.966 121.005C449.026 120.944 449.06 120.861 449.06 120.775C449.06 120.689 449.026 120.607 448.966 120.545C448.906 120.484 448.824 120.448 448.738 120.447H448.738Z" fill="#CCCCCC"/>
<path d="M420.594 139.739H411.109C410.397 139.739 409.819 140.317 409.819 141.029C409.819 141.742 410.397 142.319 411.109 142.319H420.594C421.306 142.319 421.884 141.742 421.884 141.029C421.884 140.317 421.306 139.739 420.594 139.739Z" fill="#FFB500"/>
<path d="M426.721 144.899H404.982C404.27 144.899 403.692 145.477 403.692 146.189C403.692 146.901 404.27 147.479 404.982 147.479H426.721C427.433 147.479 428.011 146.901 428.011 146.189C428.011 145.477 427.433 144.899 426.721 144.899Z" fill="#E6E6E6"/>
<path d="M426.721 150.059H404.982C404.27 150.059 403.692 150.636 403.692 151.349C403.692 152.061 404.27 152.639 404.982 152.639H426.721C427.433 152.639 428.011 152.061 428.011 151.349C428.011 150.636 427.433 150.059 426.721 150.059Z" fill="#E6E6E6"/>
<path d="M280.263 230.441L275.891 228.35L281.897 210.074L288.35 213.16L280.263 230.441Z" fill="#FFB6B6"/>
<path d="M309.576 227.495C309.258 227.694 308.94 227.89 308.619 228.086C307.98 228.478 307.335 228.863 306.689 229.242C306.365 229.432 306.037 229.621 305.713 229.807V229.817L305.693 229.82L305.687 229.823L305.192 229.945L304.483 228.07L304.155 227.206L303.693 225.982L302.845 223.744L298.38 211.957L305.321 210.245L305.581 211.308H305.584L305.713 211.835L308.138 221.669L308.632 223.679L308.648 223.74L308.947 224.942L309.204 225.982L309.49 227.145L309.576 227.495Z" fill="#FFB6B6"/>
<path d="M350.979 186.102C350.539 186.809 350.089 187.512 349.636 188.209C348.795 189.507 347.931 190.785 347.044 192.044C347.044 192.047 347.041 192.047 347.038 192.05C346.521 192.529 345.95 192.946 345.336 193.293C345.31 193.312 345.281 193.325 345.256 193.341C344.804 193.591 344.322 193.784 343.823 193.916C343.643 193.961 343.46 194.006 343.28 194.051C342.632 194.205 341.989 194.337 341.35 194.453C340.213 194.655 339.089 194.799 337.971 194.889C337.882 194.899 337.792 194.905 337.702 194.912C333.106 195.249 328.632 194.706 323.962 193.817C321.656 193.38 319.302 192.856 316.864 192.314C316.068 192.134 315.268 191.957 314.459 191.781C314.398 191.768 314.334 191.752 314.269 191.739C313.113 191.485 311.938 191.235 310.733 190.987C309.217 190.676 307.653 190.374 306.028 190.088L306.144 192.378C306.24 194.139 306.606 195.876 307.229 197.526C307.923 199.556 308.472 201.162 307.313 204.505L306.754 206.124C307.044 206.928 307.143 207.788 307.044 208.636C306.946 209.485 306.652 210.299 306.186 211.015L306.073 211.185L310.733 222.975L311.035 223.74H308.649L305.713 223.743H300.739L293.56 209.342L293.217 208.655V208.619L293.959 180.944C293.968 180.7 293.988 180.453 294.02 180.209C294.151 179.099 294.501 178.027 295.051 177.054C295.601 176.081 296.339 175.228 297.222 174.543C298.068 173.882 299.037 173.396 300.073 173.112C301.109 172.829 302.191 172.754 303.256 172.893L305.713 173.211L310.733 173.859L314.269 174.319L314.34 174.328L324.768 175.677L325.517 172.626L325.655 172.575L330.045 170.966L345.23 165.4L345.268 165.387L346.267 165.021L346.386 165.214C346.421 165.271 346.457 165.329 346.489 165.387C347.476 167.157 348.28 169.023 348.888 170.956C349.91 174.114 350.752 177.328 351.409 180.581C351.438 180.723 351.464 180.851 351.486 180.967L351.496 181.002C351.505 181.057 351.512 181.092 351.515 181.102C351.816 182.786 351.63 184.521 350.979 186.102Z" fill="#2F2E41"/>
<path d="M351.62 175.903C351.571 175.698 351.51 175.489 351.446 175.287C350.936 173.754 350.342 172.251 349.667 170.784C348.909 169.114 348 167.325 346.918 165.388C346.394 164.45 345.831 163.475 345.228 162.462C344.926 161.955 344.613 161.438 344.287 160.911C344.275 160.887 344.261 160.863 344.246 160.841L344.153 160.686L329.128 162.697L323.534 163.445L323.2 166.233L323.119 166.923C323.116 166.923 323.116 166.923 323.119 166.927L322.894 168.809V168.812L322.596 171.298L322.57 171.295L314.268 170.219L305.712 169.111L301.116 168.516C300.051 168.378 298.969 168.452 297.933 168.736C296.897 169.019 295.928 169.506 295.081 170.167C294.198 170.852 293.461 171.705 292.911 172.678C292.361 173.651 292.011 174.723 291.879 175.833C291.851 176.057 291.831 176.289 291.822 176.517L287.486 186.791C284.891 192.935 283.239 199.436 282.585 206.074L279.405 216.239L279.858 216.28L286.596 216.907L288.375 217.074L292.294 211.354C292.74 210.702 293.164 210.031 293.559 209.343C294.21 208.221 294.788 207.058 295.29 205.862L303.766 185.692C304.421 185.805 305.07 185.912 305.712 186.014C308.683 186.495 311.535 186.888 314.268 187.192C323.155 188.185 330.85 188.262 337.7 187.42C339.624 187.186 341.484 186.878 343.279 186.495C343.937 186.357 344.587 186.209 345.228 186.049C345.379 186.014 345.527 185.978 345.675 185.94C347.002 185.597 348.222 184.928 349.224 183.992C350.225 183.056 350.976 181.884 351.408 180.583C351.923 179.075 351.996 177.451 351.62 175.903Z" fill="#2F2E41"/>
<path d="M281.66 227.457L276.929 225.19L276.187 224.833L275.002 227.743L266.729 229.564C266.32 229.653 265.95 229.872 265.674 230.186C265.398 230.501 265.229 230.896 265.193 231.313C265.157 231.73 265.256 232.148 265.474 232.506C265.693 232.863 266.02 233.141 266.408 233.299L274.491 236.597L277.058 234.288L276.428 237.387L279.473 238.63L282.81 228.009L281.66 227.457Z" fill="#2F2E41"/>
<path d="M310.733 222.976L311.035 223.74H310.733V222.976Z" fill="#2F2E41"/>
<path d="M309.086 223.903L304.129 225.621L303.351 225.889L304.556 228.791L299.959 235.906C299.731 236.258 299.622 236.673 299.647 237.091C299.672 237.509 299.83 237.908 300.098 238.229C300.366 238.551 300.73 238.779 301.137 238.879C301.544 238.979 301.972 238.947 302.358 238.786L310.423 235.442L310.622 231.996L312.355 234.641L315.393 233.382L310.291 223.487L309.086 223.903Z" fill="#2F2E41"/>
<path d="M278.999 117.638C279.234 118.096 279.567 118.497 279.974 118.812C280.38 119.128 280.851 119.35 281.353 119.464C281.855 119.578 282.376 119.58 282.879 119.471C283.382 119.361 283.855 119.143 284.264 118.831L294.688 125.751L294.708 119.25L284.806 113.675C284.237 113.022 283.448 112.6 282.588 112.49C281.729 112.38 280.858 112.589 280.143 113.077C279.427 113.566 278.915 114.3 278.704 115.14C278.494 115.981 278.599 116.87 278.999 117.638V117.638Z" fill="#FFB6B6"/>
<path d="M286.786 120.643L291.65 115.11L311.451 126.866L337.701 124.462C338.998 124.343 340.306 124.511 341.531 124.955C342.756 125.398 343.869 126.106 344.79 127.028C345.711 127.95 346.417 129.063 346.859 130.288C347.302 131.514 347.469 132.822 347.349 134.119C347.129 136.462 345.989 138.623 344.179 140.126C342.369 141.63 340.036 142.354 337.692 142.139L308.129 139.403L286.786 120.643Z" fill="#CCCCCC"/>
<path d="M347.711 120.728L347.665 120.671C343.973 120.307 340.253 121.021 336.959 122.728C333.664 124.435 330.936 127.062 329.104 130.289L326.876 134.213C319.67 143.022 324.906 149.097 325.22 150L322.719 161.533L323.279 165.392L323.559 166.539L352.11 181.457C353.735 173.647 352.163 166.992 346.242 161.908L351.971 144.08C353.242 140.138 353.517 135.943 352.774 131.869C352.031 127.795 350.291 123.968 347.711 120.728Z" fill="#CCCCCC"/>
<path d="M325.01 207.338H315.852C315.348 207.338 314.861 207.156 314.481 206.825C314.101 206.495 313.853 206.039 313.782 205.54C313.216 201.379 313.216 197.16 313.782 192.999C313.852 192.506 314.095 192.055 314.468 191.725C314.841 191.396 315.319 191.21 315.817 191.201C318.698 189.91 321.801 189.91 325.041 191.201C325.343 191.205 325.64 191.275 325.912 191.406C326.184 191.537 326.424 191.726 326.615 191.96C326.814 192.203 326.956 192.487 327.032 192.792C327.107 193.097 327.114 193.415 327.051 193.723C326.316 197.384 326.316 201.155 327.051 204.816C327.114 205.124 327.107 205.442 327.032 205.747C326.956 206.052 326.814 206.336 326.615 206.579C326.42 206.817 326.175 207.009 325.898 207.14C325.62 207.271 325.317 207.339 325.01 207.338Z" fill="#FFB500"/>
<path d="M324.051 195.982H316.343C316.279 195.983 316.216 195.971 316.157 195.947C316.098 195.923 316.044 195.887 315.999 195.843C315.954 195.798 315.918 195.745 315.894 195.686C315.869 195.627 315.857 195.564 315.857 195.501C315.857 195.437 315.869 195.374 315.894 195.315C315.918 195.256 315.954 195.203 315.999 195.158C316.044 195.114 316.098 195.078 316.157 195.054C316.216 195.03 316.279 195.018 316.343 195.019H324.051C324.114 195.018 324.177 195.03 324.236 195.054C324.295 195.078 324.349 195.114 324.394 195.158C324.439 195.203 324.475 195.256 324.5 195.315C324.524 195.374 324.537 195.437 324.537 195.501C324.537 195.564 324.524 195.627 324.5 195.686C324.475 195.745 324.439 195.798 324.394 195.843C324.349 195.887 324.295 195.923 324.236 195.947C324.177 195.971 324.114 195.983 324.051 195.982Z" fill="white"/>
<path d="M324.051 199.836H316.343C316.279 199.837 316.216 199.825 316.157 199.801C316.098 199.777 316.044 199.741 315.999 199.697C315.954 199.652 315.918 199.599 315.894 199.54C315.869 199.481 315.857 199.418 315.857 199.354C315.857 199.291 315.869 199.228 315.894 199.169C315.918 199.11 315.954 199.057 315.999 199.012C316.044 198.968 316.098 198.932 316.157 198.908C316.216 198.884 316.279 198.872 316.343 198.873H324.051C324.114 198.872 324.177 198.884 324.236 198.908C324.295 198.932 324.349 198.968 324.394 199.012C324.439 199.057 324.475 199.11 324.5 199.169C324.524 199.228 324.537 199.291 324.537 199.354C324.537 199.418 324.524 199.481 324.5 199.54C324.475 199.599 324.439 199.652 324.394 199.697C324.349 199.741 324.295 199.777 324.236 199.801C324.177 199.825 324.114 199.837 324.051 199.836Z" fill="white"/>
<path d="M324.051 203.69H316.343C316.279 203.691 316.216 203.679 316.157 203.655C316.098 203.631 316.044 203.596 315.999 203.551C315.954 203.506 315.918 203.453 315.893 203.394C315.869 203.335 315.856 203.272 315.856 203.208C315.856 203.145 315.869 203.082 315.893 203.023C315.918 202.964 315.954 202.911 315.999 202.866C316.044 202.821 316.098 202.786 316.157 202.762C316.216 202.738 316.279 202.726 316.343 202.727H324.051C324.114 202.726 324.177 202.738 324.236 202.762C324.295 202.786 324.349 202.821 324.394 202.866C324.439 202.911 324.475 202.964 324.5 203.023C324.524 203.082 324.537 203.145 324.537 203.208C324.537 203.272 324.524 203.335 324.5 203.394C324.475 203.453 324.439 203.506 324.394 203.551C324.349 203.596 324.295 203.631 324.236 203.655C324.177 203.679 324.114 203.691 324.051 203.69Z" fill="white"/>
<path d="M280.678 120.812H271.52C271.017 120.812 270.53 120.63 270.15 120.299C269.769 119.969 269.521 119.512 269.45 119.014C268.885 114.853 268.885 110.634 269.45 106.473C269.52 105.98 269.764 105.528 270.137 105.199C270.509 104.869 270.988 104.684 271.485 104.675C274.367 103.383 277.47 103.383 280.71 104.675C281.012 104.679 281.309 104.749 281.581 104.88C281.853 105.011 282.092 105.2 282.283 105.434C282.483 105.677 282.625 105.961 282.701 106.266C282.776 106.571 282.783 106.889 282.72 107.197C281.984 110.858 281.984 114.629 282.72 118.29C282.783 118.597 282.776 118.916 282.701 119.221C282.625 119.526 282.483 119.81 282.283 120.053C282.089 120.291 281.844 120.482 281.566 120.614C281.289 120.745 280.985 120.813 280.678 120.812Z" fill="#FFB500"/>
<path d="M279.719 109.456H272.011C271.948 109.456 271.884 109.444 271.825 109.42C271.767 109.397 271.713 109.361 271.668 109.316C271.623 109.272 271.587 109.218 271.562 109.16C271.538 109.101 271.525 109.038 271.525 108.974C271.525 108.911 271.538 108.848 271.562 108.789C271.587 108.73 271.623 108.677 271.668 108.632C271.713 108.587 271.767 108.552 271.825 108.528C271.884 108.504 271.948 108.492 272.011 108.492H279.719C279.783 108.492 279.846 108.504 279.905 108.528C279.964 108.552 280.017 108.587 280.063 108.632C280.108 108.677 280.144 108.73 280.168 108.789C280.193 108.848 280.205 108.911 280.205 108.974C280.205 109.038 280.193 109.101 280.168 109.16C280.144 109.218 280.108 109.272 280.063 109.316C280.017 109.361 279.964 109.397 279.905 109.42C279.846 109.444 279.783 109.456 279.719 109.456Z" fill="white"/>
<path d="M279.719 113.31H272.011C271.948 113.31 271.884 113.298 271.825 113.274C271.767 113.251 271.713 113.215 271.668 113.17C271.623 113.126 271.587 113.072 271.562 113.013C271.538 112.955 271.525 112.892 271.525 112.828C271.525 112.765 271.538 112.702 271.562 112.643C271.587 112.584 271.623 112.531 271.668 112.486C271.713 112.441 271.767 112.406 271.825 112.382C271.884 112.358 271.948 112.346 272.011 112.346H279.719C279.783 112.346 279.846 112.358 279.905 112.382C279.964 112.406 280.017 112.441 280.063 112.486C280.108 112.531 280.144 112.584 280.168 112.643C280.193 112.702 280.205 112.765 280.205 112.828C280.205 112.892 280.193 112.955 280.168 113.013C280.144 113.072 280.108 113.126 280.063 113.17C280.017 113.215 279.964 113.251 279.905 113.274C279.846 113.298 279.783 113.31 279.719 113.31Z" fill="white"/>
<path d="M279.719 117.164H272.011C271.948 117.165 271.884 117.153 271.825 117.129C271.766 117.105 271.713 117.069 271.668 117.024C271.622 116.98 271.586 116.926 271.562 116.868C271.538 116.809 271.525 116.746 271.525 116.682C271.525 116.619 271.538 116.556 271.562 116.497C271.586 116.438 271.622 116.385 271.668 116.34C271.713 116.295 271.766 116.26 271.825 116.236C271.884 116.212 271.948 116.2 272.011 116.2H279.719C279.783 116.2 279.846 116.212 279.905 116.236C279.964 116.26 280.018 116.295 280.063 116.34C280.108 116.385 280.144 116.438 280.168 116.497C280.193 116.556 280.206 116.619 280.206 116.682C280.206 116.746 280.193 116.809 280.168 116.868C280.144 116.926 280.108 116.98 280.063 117.024C280.018 117.069 279.964 117.105 279.905 117.129C279.846 117.153 279.783 117.165 279.719 117.164Z" fill="white"/>
<path d="M119.91 144.313H110.752C110.249 144.313 109.762 144.131 109.382 143.8C109.001 143.47 108.753 143.013 108.682 142.515C108.117 138.353 108.117 134.135 108.682 129.974C108.752 129.481 108.996 129.029 109.368 128.7C109.741 128.37 110.22 128.185 110.717 128.176C113.599 126.884 116.702 126.884 119.942 128.176C120.244 128.18 120.541 128.25 120.813 128.381C121.084 128.512 121.324 128.701 121.515 128.934C121.714 129.178 121.857 129.462 121.932 129.767C122.008 130.072 122.015 130.39 121.952 130.698C121.216 134.359 121.216 138.13 121.952 141.791C122.015 142.098 122.008 142.416 121.932 142.722C121.857 143.027 121.714 143.311 121.515 143.554C121.321 143.792 121.076 143.983 120.798 144.115C120.521 144.246 120.217 144.314 119.91 144.313Z" fill="#FFB500"/>
<path d="M118.951 132.957H111.243C111.18 132.957 111.116 132.945 111.057 132.921C110.999 132.898 110.945 132.862 110.9 132.817C110.855 132.773 110.819 132.719 110.794 132.661C110.77 132.602 110.757 132.539 110.757 132.475C110.757 132.412 110.77 132.349 110.794 132.29C110.819 132.231 110.855 132.178 110.9 132.133C110.945 132.088 110.999 132.053 111.057 132.029C111.116 132.005 111.18 131.993 111.243 131.993H118.951C119.015 131.993 119.078 132.005 119.137 132.029C119.196 132.053 119.249 132.088 119.295 132.133C119.34 132.178 119.376 132.231 119.4 132.29C119.425 132.349 119.437 132.412 119.437 132.475C119.437 132.539 119.425 132.602 119.4 132.661C119.376 132.719 119.34 132.773 119.295 132.817C119.249 132.862 119.196 132.898 119.137 132.921C119.078 132.945 119.015 132.957 118.951 132.957Z" fill="white"/>
<path d="M118.951 136.811H111.243C111.18 136.811 111.116 136.799 111.057 136.775C110.999 136.751 110.945 136.716 110.9 136.671C110.855 136.627 110.819 136.573 110.794 136.514C110.77 136.456 110.757 136.393 110.757 136.329C110.757 136.266 110.77 136.203 110.794 136.144C110.819 136.085 110.855 136.032 110.9 135.987C110.945 135.942 110.999 135.907 111.057 135.883C111.116 135.859 111.18 135.847 111.243 135.847H118.951C119.015 135.847 119.078 135.859 119.137 135.883C119.196 135.907 119.249 135.942 119.295 135.987C119.34 136.032 119.376 136.085 119.4 136.144C119.425 136.203 119.437 136.266 119.437 136.329C119.437 136.393 119.425 136.456 119.4 136.514C119.376 136.573 119.34 136.627 119.295 136.671C119.249 136.716 119.196 136.751 119.137 136.775C119.078 136.799 119.015 136.811 118.951 136.811Z" fill="white"/>
<path d="M118.951 140.665H111.243C111.179 140.665 111.116 140.653 111.057 140.63C110.998 140.606 110.945 140.57 110.9 140.525C110.854 140.481 110.818 140.427 110.794 140.369C110.769 140.31 110.757 140.247 110.757 140.183C110.757 140.12 110.769 140.056 110.794 139.998C110.818 139.939 110.854 139.886 110.9 139.841C110.945 139.796 110.998 139.761 111.057 139.737C111.116 139.713 111.179 139.701 111.243 139.701H118.951C119.015 139.701 119.078 139.713 119.137 139.737C119.196 139.761 119.249 139.796 119.295 139.841C119.34 139.886 119.376 139.939 119.4 139.998C119.425 140.056 119.437 140.12 119.437 140.183C119.437 140.247 119.425 140.31 119.4 140.369C119.376 140.427 119.34 140.481 119.295 140.525C119.249 140.57 119.196 140.606 119.137 140.63C119.078 140.653 119.015 140.665 118.951 140.665Z" fill="white"/>
<path d="M327.693 195.632C328.136 195.37 328.516 195.014 328.807 194.589C329.098 194.165 329.292 193.681 329.376 193.174C329.46 192.666 329.431 192.146 329.292 191.65C329.153 191.155 328.908 190.695 328.572 190.305L334.861 179.49L328.37 179.855L323.393 190.07C322.774 190.677 322.4 191.49 322.341 192.355C322.282 193.219 322.543 194.075 323.073 194.761C323.603 195.446 324.366 195.914 325.217 196.074C326.069 196.235 326.95 196.077 327.693 195.632V195.632Z" fill="#FFB6B6"/>
<path d="M330.231 187.68L324.419 183.154L334.979 162.689L331.022 136.629C330.827 135.34 330.917 134.025 331.287 132.776C331.657 131.526 332.298 130.374 333.163 129.4C334.029 128.426 335.098 127.655 336.295 127.14C337.492 126.626 338.788 126.382 340.09 126.425C342.442 126.505 344.666 127.515 346.275 129.233C347.883 130.951 348.744 133.236 348.669 135.589L347.692 165.262L330.231 187.68Z" fill="#CCCCCC"/>
<path d="M49.3442 182.089C49.7103 181.721 49.9912 181.277 50.1672 180.789C50.3432 180.301 50.41 179.78 50.363 179.263C50.3159 178.746 50.1561 178.246 49.8948 177.798C49.6335 177.349 49.2771 176.964 48.8506 176.668L54.5026 148.595L48.261 150.599L43.7369 177.753C43.2876 178.502 43.1288 179.39 43.2905 180.249C43.4523 181.107 43.9234 181.877 44.6146 182.411C45.3058 182.946 46.169 183.208 47.0407 183.149C47.9124 183.089 48.732 182.712 49.3442 182.089H49.3442Z" fill="#9E616A"/>
<path d="M57.6897 122.693L53.8171 119.77C53.8171 119.77 50.4009 119.528 49.7958 125.689C49.1908 131.85 47.9484 143.856 47.9484 143.856L42.0226 171.302L50.2256 173.103L56.5726 143.483L60.3801 134.688L57.6897 122.693Z" fill="#CCCCCC"/>
<path d="M51.3053 167.51L73.1276 167.146L74.9462 152.235H51.3053V167.51Z" fill="#9E616A"/>
<path d="M70.9452 259.273H75.9829L78.3795 239.841L70.9441 239.842L70.9452 259.273Z" fill="#9E616A"/>
<path d="M39.3844 259.74L44.4222 259.704L46.6825 240.256L40.1306 241.759L39.3844 259.74Z" fill="#9E616A"/>
<path d="M55.1408 139.393L53.9994 142.36L54.2275 145.328L76.5678 153.066L75.4595 140.078L72.9481 137.109L55.1408 139.393Z" fill="#FFB6B6"/>
<path d="M64.725 112.685C69.1317 112.685 72.7041 109.112 72.7041 104.706C72.7041 100.299 69.1317 96.7266 64.725 96.7266C60.3183 96.7266 56.7459 100.299 56.7459 104.706C56.7459 109.112 60.3183 112.685 64.725 112.685Z" fill="#9E616A"/>
<path d="M69.6957 256.788L77.6594 256.313V259.725L85.2307 264.954C85.6047 265.212 85.8864 265.583 86.0345 266.012C86.1827 266.442 86.1897 266.908 86.0545 267.342C85.9192 267.776 85.6488 268.155 85.2828 268.424C84.9167 268.693 84.4741 268.839 84.0197 268.839H74.5386L72.9044 265.464L72.2663 268.839H68.6915L69.6957 256.788Z" fill="#2F2E41"/>
<path d="M37.6611 257.266L45.6213 256.735L45.6452 260.147L53.2529 265.323C53.6287 265.579 53.9129 265.948 54.0641 266.376C54.2153 266.805 54.2256 267.271 54.0934 267.705C53.9612 268.14 53.6934 268.521 53.3293 268.793C52.9651 269.065 52.5235 269.213 52.0691 269.217L42.5882 269.283L40.9304 265.919L40.316 269.299L36.7413 269.324L37.6611 257.266Z" fill="#2F2E41"/>
<path d="M37.8168 244.841L41.4851 215.519L45.8496 184.604C42.6534 178.669 49.8504 160.236 49.8504 160.236L50.8662 160.285L73.8598 164.623L73.8549 164.601C78.5578 177.428 80.1159 183.765 79.8582 197.424L78.9317 246.528H79.2223C79.7046 246.528 80.1672 246.72 80.5082 247.061C80.8493 247.402 81.0409 247.864 81.0409 248.347C81.0409 248.829 80.8493 249.292 80.5082 249.633C80.1672 249.974 79.7046 250.165 79.2223 250.165H70.1297C69.8907 250.166 69.6539 250.119 69.4329 250.028C69.2119 249.936 69.011 249.803 68.8418 249.634C68.6726 249.465 68.5384 249.264 68.4468 249.043C68.3552 248.822 68.3081 248.586 68.3081 248.347C68.3081 248.108 68.3552 247.871 68.4468 247.65C68.5384 247.429 68.6726 247.229 68.8418 247.06C69.011 246.891 69.2119 246.757 69.4329 246.666C69.6539 246.574 69.8907 246.528 70.1297 246.528H70.3642L62.0183 188.06L54.9422 212.61L46.9407 244.616C49.8504 243.888 49.3986 245.574 49.3986 246.528C49.3986 247.01 49.207 247.473 48.8659 247.814C48.5249 248.155 48.0624 248.347 47.58 248.347H38.4875C38.0646 248.347 37.6548 248.2 37.3287 247.931C37.0026 247.661 36.7808 247.287 36.7013 246.871C36.6218 246.456 36.6898 246.026 36.8934 245.655C37.0971 245.285 37.4236 244.997 37.8168 244.841H37.8168Z" fill="#2F2E41"/>
<path d="M48.06 161.191L48.7875 153.917C48.863 153.62 49.0306 153.355 49.2661 153.159C49.5016 152.964 49.7931 152.848 50.0987 152.828C50.4017 149.363 51.6769 134.414 51.7531 133.762L51.7561 133.734L52.3359 121.347C52.357 120.897 52.543 120.471 52.8585 120.15C53.174 119.828 53.5968 119.634 54.0462 119.605L57.1089 119.405C57.1509 119.403 57.1908 119.386 57.22 119.356C57.2492 119.325 57.2655 119.285 57.2655 119.243C57.2655 118.905 57.3321 118.57 57.4616 118.257C57.591 117.945 57.7807 117.661 58.0199 117.422C58.259 117.183 58.543 116.993 58.8554 116.863C59.1679 116.734 59.5028 116.667 59.8411 116.667H68.9086C69.496 116.668 70.063 116.882 70.5033 117.271C70.9437 117.659 71.227 118.195 71.3002 118.778C71.3042 118.818 71.3232 118.855 71.3535 118.882C71.3837 118.909 71.4228 118.923 71.4631 118.922H71.4642C72.4946 118.901 73.4983 119.25 74.2935 119.905C75.0886 120.561 75.6224 121.48 75.7979 122.495C77.0376 129.708 79.5219 146.078 78.2936 155.179C77.866 158.347 78.7878 155.838 78.9495 158.488C78.9656 158.745 78.9309 159.001 78.8476 159.244C78.7642 159.487 78.6338 159.711 78.4637 159.903C78.8118 160.03 79.096 160.288 79.2546 160.623C79.4131 160.958 79.4332 161.342 79.3105 161.691L79.4699 161.652C79.4232 161.837 79.3404 162.011 79.2264 162.164C79.1123 162.318 78.9692 162.447 78.8052 162.545C78.6412 162.643 78.4595 162.708 78.2705 162.735C78.0814 162.763 77.8888 162.753 77.7035 162.707L53.9805 165.921C53.2014 165.725 47.8636 161.97 48.06 161.191Z" fill="#CCCCCC"/>
<path d="M111.451 131.616C111.302 132.113 111.047 132.572 110.702 132.96C110.357 133.347 109.931 133.655 109.454 133.86C108.977 134.065 108.462 134.163 107.943 134.148C107.424 134.132 106.915 134.003 106.452 133.769L97.2806 142.139L96.0629 135.698L104.964 128.758C105.408 128.005 106.113 127.442 106.945 127.174C107.777 126.907 108.678 126.954 109.477 127.306C110.277 127.658 110.919 128.292 111.283 129.086C111.647 129.88 111.707 130.781 111.451 131.616H111.451Z" fill="#9E616A"/>
<path d="M79.5301 125.219C79.5301 125.219 76.3322 117.992 72.2932 119.428C68.2542 120.865 70.3396 127.877 70.3396 127.877L85.5143 150.743C85.5143 150.743 107.402 136.702 104.74 136.603C102.079 136.504 101.283 131.663 101.283 131.663L89.7147 137.443L89.3233 135.386L88.696 136.013L87.0771 134.739L79.5301 125.219Z" fill="#CCCCCC"/>
<path d="M341.129 117.279C347.281 117.279 352.269 112.292 352.269 106.14C352.269 99.9872 347.281 94.9997 341.129 94.9997C334.977 94.9997 329.989 99.9872 329.989 106.14C329.989 112.292 334.977 117.279 341.129 117.279Z" fill="#FFB6B6"/>
<path d="M376.881 122.532C375.595 124.354 373.719 125.675 371.57 126.271C370.71 126.527 369.823 126.677 368.926 126.72C368.816 125.706 368.551 124.716 368.141 123.783C368.182 124.776 368.044 125.769 367.733 126.713C366.387 126.636 365.072 126.284 363.868 125.677C362.686 125.083 361.658 124.22 360.867 123.16C360.076 122.099 359.544 120.868 359.311 119.565C358.839 116.518 360.221 113.526 360.72 110.484C361.222 107.441 360.28 103.588 357.302 102.788C355.034 102.179 355.288 102.442 353.403 103.842C355.364 106.742 348.12 117.369 345.155 116.442C343.479 115.918 342.406 114.381 342.06 114.381C339.73 118.394 344.118 125.157 339.696 126.562L340.06 126.197C342.729 122.914 337.151 115.966 339.82 112.683C340.564 111.764 341.357 110.676 341.137 109.515C340.929 108.41 339.176 107.826 338.663 108.733C339.586 106.619 338.223 103.796 335.966 103.253C333.962 102.77 333.998 103.366 331.987 103.624C331.855 102.755 331.61 101.907 331.256 101.102C331.293 101.969 331.192 102.837 330.956 103.673C330.245 103.659 329.559 103.411 329.004 102.967C327.364 101.645 327.696 98.8684 329.16 97.3541C330.626 95.8398 332.805 95.2945 334.883 94.9417C335.487 90.7353 347.092 90.2965 348.631 94.4996C349.286 91.3609 353.215 89.7321 356.269 90.7058C359.323 91.6794 361.442 94.5317 362.558 97.5374C363.673 100.541 363.985 103.773 364.672 106.903C365.359 110.032 366.521 113.219 368.913 115.352C371.304 117.482 375.201 118.188 377.721 116.209C378.088 117.255 378.203 118.372 378.057 119.471C377.91 120.569 377.508 121.618 376.881 122.532Z" fill="#2F2E41"/>
<path d="M481.393 147.953L479.834 155.778C479.716 156.376 479.594 156.985 479.46 157.589C478.157 157.318 476.805 157.394 475.54 157.808C476.544 159.242 477.443 160.747 478.232 162.31C477.249 165.339 475.807 168.137 473.393 170.162C471.78 171.484 469.854 172.368 467.801 172.729C465.747 173.09 463.635 172.916 461.669 172.223L461.738 171.914C459.142 166.877 460.552 160.526 463.778 155.874C465.424 153.579 467.373 151.518 469.574 149.748C471.753 147.932 474.108 146.303 476.442 144.695C476.967 144.335 477.586 144.139 478.222 144.132C478.859 144.126 479.482 144.309 480.014 144.659C480.545 145.008 480.96 145.509 481.206 146.096C481.452 146.682 481.517 147.329 481.393 147.953Z" fill="#E4E4E4"/>
<path d="M462.224 191.051C461.568 186.269 460.893 181.426 461.353 176.593C461.762 172.301 463.071 168.109 465.737 164.671C467.153 162.85 468.875 161.289 470.826 160.06C471.335 159.739 471.803 160.545 471.297 160.865C467.92 162.999 465.309 166.149 463.839 169.863C462.215 173.993 461.954 178.495 462.236 182.882C462.406 185.534 462.764 188.169 463.126 190.802C463.155 190.922 463.137 191.047 463.077 191.154C463.016 191.261 462.917 191.34 462.8 191.376C462.681 191.408 462.553 191.392 462.446 191.331C462.339 191.27 462.26 191.169 462.226 191.05L462.224 191.051Z" fill="#F2F2F2"/>
<path d="M499.364 269.721L0.635952 269.885C0.467604 269.885 0.306321 269.817 0.187454 269.698C0.0685858 269.579 0.00183105 269.418 0.00183105 269.249C0.00183105 269.081 0.0685858 268.919 0.187454 268.8C0.306321 268.681 0.467604 268.614 0.635952 268.613L499.364 268.449C499.532 268.45 499.694 268.517 499.813 268.636C499.931 268.755 499.998 268.917 499.998 269.085C499.998 269.253 499.931 269.415 499.813 269.534C499.694 269.653 499.532 269.721 499.364 269.721Z" fill="#CACACA"/>
<path d="M55.334 99.8201C54.1103 100.407 52.7404 99.5238 51.6839 98.6483L52.0619 98.9747C50.1946 100.791 49.3216 103.405 48.895 105.978C48.468 108.548 48.4204 111.177 47.8828 113.729C47.3447 116.278 46.2286 118.84 44.1439 120.401C41.351 122.492 37.4991 122.358 34.0716 121.717C34.026 121.708 33.9834 121.701 33.9378 121.691C34.86 119.029 35.2348 116.207 35.0399 113.396C34.1212 116.213 32.5572 118.777 30.4725 120.882C28.2001 120.257 25.9821 119.449 23.8401 118.466C22.4541 117.828 20.9618 116.955 20.5771 115.478C20.1915 114.013 21.087 112.475 22.2844 111.55C23.4818 110.624 24.9514 110.141 26.3155 109.482C27.6774 108.825 29.0251 107.89 29.5704 106.477C30.828 103.228 27.2452 99.4988 28.6415 96.3045C29.3301 94.7337 31.0166 93.8793 32.6018 93.2206C35.0217 92.2177 37.5067 91.3795 40.0397 90.7117C42.2633 90.1252 44.5851 89.6694 46.8503 90.0539C49.1155 90.4384 51.3347 91.8162 52.1499 93.9674C53.5103 94.4271 54.9544 94.9453 55.8274 96.0903C56.7 97.2326 56.6297 99.1992 55.334 99.8201Z" fill="#2F2E41"/>
<path d="M66.2227 96.0546C62.7218 93.2908 59.8913 93.7626 57.7077 95.4797C57.3406 95.0713 55.7784 96.1949 55.2495 96.0334L53.3364 99.6248C52.3519 101.362 51.948 103.135 52.1071 104.133C50.2963 109.212 54.5905 112.641 59.6688 114.452C61.6952 115.179 63.9062 115.211 65.9527 114.543L66.0151 113.677L66.3997 114.387C66.3997 114.387 71.0423 123.946 72.1393 124.375C71.4736 122.648 69.718 114.441 69.2279 112.731C68.5559 110.403 69.015 106.705 69.4099 104.438C69.6561 103.04 69.6689 101.611 69.448 100.209L69.4382 100.148L70.5244 102.341L72.9616 100.808C72.0302 98.0953 72.0116 94.8498 66.2227 96.0546Z" fill="#2F2E41"/>
</g>
<defs>
<clipPath id="clip0_3_18">
<rect width="500" height="269.885" fill="white"/>
</clipPath>
</defs>
</svg>
